<?xml version="1.0" encoding="utf-8"?>
<!-- Generator: Adobe Illustrator 22.0.1, SVG Export Plug-In . SVG Version: 6.00 Build 0)  -->
<svg version="1.1" id="Capa_1" xmlns="http://www.w3.org/2000/svg" xmlns:xlink="http://www.w3.org/1999/xlink" x="0px" y="0px"
	 viewBox="0 0 1000 410" style="enable-background:new 0 0 1000 410;" xml:space="preserve">
<style type="text/css">
	.st0{fill:#E4E4ED;stroke:#DB3281;stroke-width:4;stroke-linecap:round;stroke-linejoin:round;stroke-miterlimit:10;}
	.st1{fill:#DB3281;}
	.st2{font-family:SFMono-Regular, Menlo, Monaco, Consolas, "Liberation Mono", "Courier New", monospace;}
	.st3{font-size:48px;}
</style>
<rect x="710" y="40" class="st0" width="250" height="150"/>
<text transform="matrix(1 0 0 1 720.7509 166.9998)" class="st1 st2 st3">.css</text>
<rect x="710" y="220" class="st0" width="250" height="150"/>
<text transform="matrix(1 0 0 1 719.3422 347.0626)" class="st1 st2 st3">.js</text>
<rect x="40" y="40" class="st0" width="250" height="330"/>
<text transform="matrix(1 0 0 1 51.0001 343.3383)" class="st1 st2 st3">.html</text>
<polygon class="st1" points="680.3,93.6 677.6,96.6 689.9,108 310,108 322.3,96.6 319.6,93.6 302,110 319.6,126.4 322.3,123.4 
	310,112 689.9,112 677.6,123.4 680.3,126.4 697.9,110 "/>
<polygon class="st1" points="680.3,278.6 677.6,281.6 689.9,293 310,293 322.3,281.6 319.6,278.6 302,295 319.6,311.4 322.3,308.4 
	310,297 689.9,297 677.6,308.4 680.3,311.4 697.9,295 "/>
</svg>
