<?xml version="1.0" encoding="utf-8"?>
<!-- Generator: Adobe Illustrator 27.0.0, SVG Export Plug-In . SVG Version: 6.00 Build 0)  -->
<svg version="1.1" id="Capa_1" xmlns="http://www.w3.org/2000/svg" xmlns:xlink="http://www.w3.org/1999/xlink" x="0px" y="0px"
	 viewBox="0 0 1079.45 1162.99" style="enable-background:new 0 0 1079.45 1162.99;" xml:space="preserve">
<style type="text/css">
	.st0{opacity:0.2;fill:#3652A0;}
	.st1{opacity:0.2;fill:#89AF3E;}
	.st2{opacity:0.2;fill:#CC4717;}
	.st3{font-family:'MyriadPro-Regular';}
	.st4{font-size:9px;}
	.st5{fill:none;stroke:#000000;stroke-width:0.5;stroke-miterlimit:10;}
	.st6{fill:#010202;}
	.st7{fill:#3652A0;}
	.st8{fill:#708F2B;}
	.st9{fill:#CC4717;}
	.st10{fill:none;stroke:#000000;stroke-miterlimit:10;}
	.st11{fill:none;stroke:#010202;stroke-miterlimit:10;}
	.st12{opacity:0.5;}
	.st13{fill:none;stroke:#010202;stroke-width:2;stroke-miterlimit:10;}
	.st14{fill:none;stroke:#010202;stroke-width:2;stroke-miterlimit:10;stroke-dasharray:3.0202,3.0202;}
	.st15{fill:none;stroke:#010202;stroke-width:2;stroke-miterlimit:10;stroke-dasharray:3,3;}
	.st16{opacity:0.12;fill:#010202;}
	.st17{fill:none;stroke:#010202;stroke-width:0.75;stroke-miterlimit:10;}
	.st18{opacity:0.2;fill:none;stroke:#CC4717;stroke-miterlimit:10;}
	.st19{opacity:0.2;fill:none;stroke:#89AF3E;stroke-miterlimit:10;}
	.st20{opacity:0.2;fill:none;stroke:#3652A0;stroke-miterlimit:10;}
	.st21{fill:#E72C45;}
	.st22{fill:none;}
</style>
<rect x="230.81" y="91.99" class="st0" width="333" height="54"/>
<rect x="230.81" y="172.99" class="st1" width="333" height="54"/>
<rect x="230.81" y="235.99" class="st2" width="333" height="54"/>
<rect x="230.81" y="298.99" class="st1" width="333" height="18"/>
<rect x="230.81" y="325.99" class="st0" width="333" height="81"/>
<rect x="230.81" y="505.99" class="st2" width="333" height="18"/>
<rect x="230.81" y="424.99" class="st0" width="333" height="45"/>
<rect x="230.81" y="478.99" class="st1" width="333" height="18"/>
<rect x="230.81" y="586.99" class="st0" width="333" height="18"/>
<rect x="230.81" y="532.99" class="st1" width="333" height="18"/>
<rect x="230.81" y="937.99" class="st2" width="333" height="18"/>
<rect x="230.81" y="883.99" class="st0" width="333" height="18"/>
<rect x="230.81" y="703.99" class="st0" width="333" height="27"/>
<rect x="230.81" y="991.99" class="st0" width="333" height="18"/>
<rect x="230.81" y="559.99" class="st0" width="333" height="18"/>
<rect x="230.81" y="613.99" class="st1" width="333" height="18"/>
<rect x="230.81" y="640.99" class="st2" width="333" height="18"/>
<rect x="230.81" y="667.99" class="st1" width="333" height="27"/>
<rect x="230.81" y="910.99" class="st1" width="333" height="18"/>
<rect x="230.81" y="964.99" class="st1" width="333" height="18"/>
<text transform="matrix(1 0 0 1 26.5071 523.9933)"><tspan x="0" y="0" class="st3 st4">Museo Nacional  </tspan><tspan x="0" y="10.8" class="st3 st4">de Antropología</tspan></text>
<text transform="matrix(1 0 0 1 134.507 289.993)" class="st3 st4">2. Construcción</text>
<text transform="matrix(1 0 0 1 266.8141 208.993)" class="st3 st4">2.1 Tamaño en hectáreas</text>
<text transform="matrix(1 0 0 1 410.8141 208.993)" class="st3 st4">Distribución del espacio</text>
<text transform="matrix(1 0 0 1 266.8141 460.993)" class="st3 st4">3.1 Muro de calaveras</text>
<text transform="matrix(1 0 0 1 266.8141 487.993)" class="st3 st4">3.2 Celosía del vestíbulo</text>
<text transform="matrix(1 0 0 1 134.507 577.993)"><tspan x="0" y="0" class="st3 st4">3. Elementos </tspan><tspan x="0" y="10.8" class="st3 st4">destacados</tspan><tspan x="0" y="21.6" class="st3 st4">en la arquitectura</tspan></text>
<text transform="matrix(1 0 0 1 266.8138 370.993)" class="st3 st4">2.3 Personajes involucrados</text>
<text transform="matrix(1 0 0 1 410.8141 352.993)" class="st3 st4">Pedro Ramírez Vázquez</text>
<text transform="matrix(1 0 0 1 410.8141 370.993)" class="st3 st4">Otros arquitectos</text>
<text transform="matrix(1 0 0 1 410.8141 388.993)" class="st3 st4">Adolfo López Mateos</text>
<text transform="matrix(1 0 0 1 410.8141 262.993)" class="st3 st4">Fase de construcción</text>
<text transform="matrix(1 0 0 1 410.8141 280.993)" class="st3 st4">Llegada de Tláloc</text>
<text transform="matrix(1 0 0 1 410.8141 307.993)" class="st3 st4">Inauguración</text>
<text transform="matrix(1 0 0 1 266.8141 280.993)" class="st3 st4">2.2 Tiempo de construcción</text>
<text transform="matrix(1 0 0 1 266.8138 514.993)" class="st3 st4">3.3 Promontorio del Vestíbulo</text>
<text transform="matrix(1 0 0 1 266.8141 649.993)" class="st3 st4">3.8 Paraguas</text>
<text transform="matrix(1 0 0 1 266.8138 568.993)" class="st3 st4">3.5 Reja del patio</text>
<text transform="matrix(1 0 0 1 266.8138 622.993)" class="st3 st4">3.7 Patio central</text>
<text transform="matrix(1 0 0 1 266.8138 595.993)" class="st3 st4">3.6 El sol del viento</text>
<text transform="matrix(1 0 0 1 266.8138 712.993)"><tspan x="0" y="0" class="st3 st4">3.10 Plafones para salida de audio </tspan><tspan x="0" y="10.8" class="st3 st4">y aire acondicionado</tspan></text>
<text transform="matrix(1 0 0 1 266.8138 541.993)" class="st3 st4">3.4 Muros de mármol</text>
<text transform="matrix(1 0 0 1 134.5068 946.9934)"><tspan x="0" y="0" class="st3 st4">4. Datos</tspan><tspan x="0" y="10.8" class="st3 st4">importantes</tspan></text>
<text transform="matrix(1 0 0 1 266.8141 892.9932)" class="st3 st4">4.1 Monumento artístico de la Nación</text>
<g>
	<g>
		<path d="M136.63,113.88h-0.02l-1.02,0.55l-0.15-0.6l1.28-0.68h0.67v5.85h-0.77V113.88z"/>
		<path d="M139.59,118.52c0-0.33,0.23-0.57,0.54-0.57s0.53,0.23,0.53,0.57c0,0.32-0.21,0.57-0.54,0.57
			C139.81,119.09,139.59,118.85,139.59,118.52z"/>
		<path d="M153.97,112.93v6.07h-0.78v-6.07H153.97z"/>
		<path d="M155.31,115.82c0-0.45-0.01-0.82-0.04-1.18h0.7l0.05,0.72h0.02c0.22-0.41,0.72-0.82,1.44-0.82c0.6,0,1.54,0.36,1.54,1.85
			v2.6h-0.79v-2.51c0-0.7-0.26-1.29-1.01-1.29c-0.52,0-0.93,0.37-1.06,0.81c-0.04,0.1-0.05,0.23-0.05,0.37v2.62h-0.79V115.82z"/>
		<path d="M161.26,113.38v1.25h1.13v0.6h-1.13v2.35c0,0.54,0.15,0.85,0.59,0.85c0.21,0,0.36-0.03,0.46-0.05l0.04,0.59
			c-0.15,0.06-0.4,0.11-0.7,0.11c-0.37,0-0.67-0.12-0.85-0.33c-0.23-0.23-0.31-0.62-0.31-1.13v-2.38h-0.68v-0.6h0.68v-1.04
			L161.26,113.38z"/>
		<path d="M163.29,116c0-0.51-0.01-0.95-0.04-1.36h0.69l0.03,0.86h0.04c0.2-0.59,0.68-0.95,1.21-0.95c0.09,0,0.15,0.01,0.22,0.03
			v0.75c-0.08-0.02-0.16-0.03-0.27-0.03c-0.56,0-0.95,0.42-1.06,1.02c-0.02,0.11-0.04,0.23-0.04,0.37v2.32h-0.78V116z"/>
		<path d="M170.18,116.78c0,1.61-1.12,2.31-2.17,2.31c-1.18,0-2.09-0.86-2.09-2.24c0-1.46,0.95-2.31,2.16-2.31
			C169.33,114.54,170.18,115.45,170.18,116.78z M166.72,116.82c0,0.95,0.55,1.67,1.32,1.67c0.76,0,1.32-0.71,1.32-1.69
			c0-0.74-0.37-1.67-1.31-1.67C167.12,115.13,166.72,116,166.72,116.82z"/>
		<path d="M174.94,112.6v5.27c0,0.39,0.01,0.83,0.04,1.13h-0.71l-0.04-0.76h-0.02c-0.24,0.49-0.77,0.86-1.49,0.86
			c-1.05,0-1.86-0.89-1.86-2.21c-0.01-1.45,0.89-2.34,1.95-2.34c0.67,0,1.12,0.32,1.31,0.67h0.02v-2.6H174.94z M174.14,116.41
			c0-0.1-0.01-0.23-0.04-0.33c-0.12-0.5-0.55-0.92-1.14-0.92c-0.82,0-1.31,0.72-1.31,1.68c0,0.88,0.43,1.61,1.29,1.61
			c0.53,0,1.02-0.35,1.16-0.95c0.03-0.11,0.04-0.22,0.04-0.34V116.41z"/>
		<path d="M179.9,117.8c0,0.45,0.01,0.85,0.04,1.19h-0.7l-0.04-0.71h-0.02c-0.21,0.35-0.67,0.81-1.44,0.81
			c-0.68,0-1.5-0.38-1.5-1.91v-2.55h0.79v2.41c0,0.83,0.25,1.39,0.97,1.39c0.53,0,0.9-0.37,1.04-0.72c0.04-0.12,0.07-0.26,0.07-0.41
			v-2.67h0.79V117.8z"/>
		<path d="M184.31,118.83c-0.21,0.11-0.67,0.25-1.25,0.25c-1.31,0-2.17-0.89-2.17-2.22c0-1.34,0.92-2.31,2.34-2.31
			c0.47,0,0.88,0.12,1.1,0.23l-0.18,0.61c-0.19-0.11-0.49-0.21-0.92-0.21c-1,0-1.54,0.74-1.54,1.65c0,1.01,0.65,1.63,1.51,1.63
			c0.45,0,0.75-0.12,0.97-0.22L184.31,118.83z"/>
		<path d="M188.35,118.83c-0.21,0.11-0.67,0.25-1.25,0.25c-1.31,0-2.17-0.89-2.17-2.22c0-1.34,0.92-2.31,2.34-2.31
			c0.47,0,0.88,0.12,1.1,0.23l-0.18,0.61c-0.19-0.11-0.49-0.21-0.92-0.21c-1,0-1.54,0.74-1.54,1.65c0,1.01,0.65,1.63,1.51,1.63
			c0.45,0,0.75-0.12,0.97-0.22L188.35,118.83z"/>
		<path d="M190.15,113.41c0.01,0.27-0.19,0.49-0.5,0.49c-0.28,0-0.48-0.22-0.48-0.49c0-0.28,0.21-0.5,0.5-0.5
			C189.96,112.92,190.15,113.13,190.15,113.41z M189.27,118.99v-4.36h0.79v4.36H189.27z"/>
		<path d="M195.32,116.78c0,1.61-1.12,2.31-2.17,2.31c-1.18,0-2.09-0.86-2.09-2.24c0-1.46,0.95-2.31,2.16-2.31
			C194.47,114.54,195.32,115.45,195.32,116.78z M191.86,116.82c0,0.95,0.55,1.67,1.32,1.67c0.76,0,1.32-0.71,1.32-1.69
			c0-0.74-0.37-1.67-1.31-1.67C192.27,115.13,191.86,116,191.86,116.82z M194.38,112.75l-1.1,1.29h-0.57l0.79-1.29H194.38z"/>
		<path d="M196.32,115.82c0-0.45-0.01-0.82-0.04-1.18h0.7l0.05,0.72h0.02c0.22-0.41,0.72-0.82,1.44-0.82c0.6,0,1.54,0.36,1.54,1.85
			v2.6h-0.79v-2.51c0-0.7-0.26-1.29-1.01-1.29c-0.52,0-0.93,0.37-1.06,0.81c-0.04,0.1-0.05,0.23-0.05,0.37v2.62h-0.79V115.82z"/>
	</g>
</g>
<text transform="matrix(1 0 0 1 266.8137 100.9931)" class="st3 st4">1.1 Descripción general</text>
<text transform="matrix(1 0 0 1 266.814 136.9932)" class="st3 st4">1.2 Ubicación</text>
<text transform="matrix(1 0 0 1 266.8138 973.9935)" class="st3 st4">4.4 Robo al museo</text>
<text transform="matrix(1 0 0 1 266.8139 1000.9933)" class="st3 st4">4.5 60° aniversario</text>
<text transform="matrix(1 0 0 1 266.8137 946.9932)" class="st3 st4">4.3 El museo en el mundo</text>
<polyline class="st5" points="134.51,91.99 116.51,91.99 116.51,973.99 134.51,973.99 "/>
<polyline class="st5" points="257.81,82.99 239.81,82.99 239.81,154.99 257.81,154.99 "/>
<polyline class="st5" points="257.81,181.99 239.81,181.99 239.81,397.99 257.81,397.99 "/>
<polyline class="st5" points="257.81,433.99 239.81,433.99 239.81,739.99 257.81,739.99 "/>
<polyline class="st5" points="257.81,874.99 239.81,874.99 239.81,1018.99 257.81,1018.99 "/>
<polyline class="st5" points="410.81,190.99 392.81,190.99 392.81,217.99 410.81,217.99 "/>
<polyline class="st5" points="410.81,334.99 392.81,334.99 392.81,397.99 410.81,397.99 "/>
<polyline class="st5" points="410.81,244.99 392.81,244.99 392.81,316.99 410.81,316.99 "/>
<text transform="matrix(1 0 0 1 134.5068 37.9933)" class="st3 st4">TEMAS</text>
<text transform="matrix(1 0 0 1 266.8139 37.9933)" class="st3 st4">SUBTEMAS</text>
<text transform="matrix(1 0 0 1 581.8139 37.9933)" class="st6 st3 st4">ARCO NARRATIVO</text>
<text transform="matrix(1 0 0 1 581.8137 118.9934)" class="st7 st3 st4">Exposición</text>
<text transform="matrix(1 0 0 1 581.8139 199.9929)" class="st8 st3 st4">Acción ascendente</text>
<text transform="matrix(1 0 0 1 581.8137 262.993)" class="st9 st3 st4">Clímax</text>
<g>
	<text transform="matrix(1 0 0 1 581.8139 307.9933)" class="st8 st3 st4">Acción descendente</text>
</g>
<text transform="matrix(1 0 0 1 581.8139 370.9932)" class="st7 st3 st4">Desenlace</text>
<text transform="matrix(1 0 0 1 581.8137 460.9934)" class="st7 st3 st4">Exposición</text>
<text transform="matrix(1 0 0 1 581.8139 487.993)" class="st8 st3 st4">Acción ascendente</text>
<text transform="matrix(1 0 0 1 581.8137 514.993)" class="st9 st3 st4">Clímax</text>
<text transform="matrix(1 0 0 1 581.8136 892.9934)" class="st7 st3 st4">Exposición</text>
<text transform="matrix(1 0 0 1 581.8139 919.9929)" class="st8 st3 st4">Acción ascendente</text>
<text transform="matrix(1 0 0 1 581.8137 946.993)" class="st9 st3 st4">Clímax</text>
<g>
	<text transform="matrix(1 0 0 1 581.8139 541.9933)" class="st8 st3 st4">Acción descendente</text>
</g>
<g>
	<text transform="matrix(1 0 0 1 581.8139 685.9933)" class="st8 st3 st4">Acción descendente</text>
</g>
<g>
	<text transform="matrix(1 0 0 1 581.8139 973.9933)" class="st8 st3 st4">Acción descendente</text>
</g>
<text transform="matrix(1 0 0 1 581.8139 568.9932)" class="st7 st3 st4">Desenlace</text>
<text transform="matrix(1 0 0 1 581.8143 721.9935)" class="st7 st3 st4">Desenlace</text>
<text transform="matrix(1 0 0 1 581.8143 1009.9935)" class="st7 st3 st4">Desenlace</text>
<text transform="matrix(1 0 0 1 581.8137 595.9927)" class="st7 st3 st4">Exposición</text>
<text transform="matrix(1 0 0 1 581.8145 622.9927)" class="st8 st3 st4">Acción ascendente</text>
<text transform="matrix(1 0 0 1 581.8141 649.9931)" class="st9 st3 st4">Clímax</text>
<text transform="matrix(1 0 0 1 266.814 919.9929)" class="st3 st4">4.2 Protección reforzada UNESCO</text>
<text transform="matrix(1 0 0 1 266.8137 685.9928)" class="st3 st4">3.9 Columna del paraguas</text>
<text transform="matrix(1 0 0 1 725.8142 37.9933)" class="st6 st3 st4">STORYBOARD</text>
<g>
	<line class="st10" x1="736.31" y1="82.99" x2="772.31" y2="82.99"/>
	<line class="st10" x1="736.31" y1="87.49" x2="772.31" y2="87.49"/>
	<line class="st10" x1="736.31" y1="91.99" x2="772.31" y2="91.99"/>
</g>
<g>
	<rect x="736.31" y="100.99" class="st11" width="36" height="27"/>
	<line class="st11" x1="736.31" y1="100.99" x2="772.31" y2="127.99"/>
	<line class="st11" x1="772.31" y1="100.99" x2="736.31" y2="127.99"/>
</g>
<g>
	<rect x="736.31" y="163.99" class="st11" width="36" height="27"/>
	<line class="st11" x1="736.31" y1="163.99" x2="772.31" y2="190.99"/>
	<line class="st11" x1="772.31" y1="163.99" x2="736.31" y2="190.99"/>
</g>
<g>
	<line class="st10" x1="736.31" y1="145.99" x2="772.31" y2="145.99"/>
	<line class="st10" x1="736.31" y1="150.49" x2="772.31" y2="150.49"/>
	<line class="st10" x1="736.31" y1="154.99" x2="772.31" y2="154.99"/>
</g>
<g>
	<rect x="718.31" y="217.99" class="st11" width="72" height="54"/>
	<line class="st11" x1="718.31" y1="217.99" x2="790.31" y2="271.99"/>
	<line class="st11" x1="790.31" y1="217.99" x2="718.31" y2="271.99"/>
</g>
<g>
	<line class="st10" x1="736.31" y1="294.49" x2="772.31" y2="294.49"/>
	<line class="st10" x1="736.31" y1="298.99" x2="772.31" y2="298.99"/>
	<line class="st10" x1="736.31" y1="303.49" x2="772.31" y2="303.49"/>
</g>
<g>
	<rect x="707.81" y="334.99" class="st11" width="27" height="27"/>
	<line class="st11" x1="707.81" y1="334.99" x2="734.81" y2="361.99"/>
	<line class="st11" x1="734.81" y1="334.99" x2="707.81" y2="361.99"/>
</g>
<g>
	<rect x="743.81" y="334.99" class="st11" width="27" height="27"/>
	<line class="st11" x1="743.81" y1="334.99" x2="770.81" y2="361.99"/>
	<line class="st11" x1="770.81" y1="334.99" x2="743.81" y2="361.99"/>
</g>
<g>
	<rect x="779.81" y="334.99" class="st11" width="27" height="27"/>
	<line class="st11" x1="779.81" y1="334.99" x2="806.81" y2="361.99"/>
	<line class="st11" x1="806.81" y1="334.99" x2="779.81" y2="361.99"/>
</g>
<g>
	<line class="st10" x1="707.81" y1="370.99" x2="734.81" y2="370.99"/>
	<line class="st10" x1="707.81" y1="375.49" x2="734.81" y2="375.49"/>
	<line class="st10" x1="707.81" y1="379.99" x2="734.81" y2="379.99"/>
</g>
<g>
	<line class="st10" x1="743.81" y1="370.99" x2="770.81" y2="370.99"/>
	<line class="st10" x1="743.81" y1="375.49" x2="770.81" y2="375.49"/>
	<line class="st10" x1="743.81" y1="379.99" x2="770.81" y2="379.99"/>
</g>
<g>
	<line class="st10" x1="779.81" y1="370.99" x2="806.81" y2="370.99"/>
	<line class="st10" x1="779.81" y1="375.49" x2="806.81" y2="375.49"/>
	<line class="st10" x1="779.81" y1="379.99" x2="806.81" y2="379.99"/>
</g>
<g>
	<rect x="716.81" y="424.99" class="st11" width="27.33" height="20.5"/>
	<line class="st11" x1="716.81" y1="424.99" x2="744.15" y2="445.49"/>
	<line class="st11" x1="744.15" y1="424.99" x2="716.81" y2="445.49"/>
</g>
<g>
	<rect x="763.31" y="424.99" class="st11" width="54" height="27"/>
	<line class="st11" x1="763.31" y1="424.99" x2="817.31" y2="451.99"/>
	<line class="st11" x1="817.31" y1="424.99" x2="763.31" y2="451.99"/>
</g>
<g>
	<line class="st10" x1="764.81" y1="460.99" x2="817.31" y2="460.99"/>
	<line class="st10" x1="764.81" y1="465.49" x2="817.31" y2="465.49"/>
	<line class="st10" x1="764.81" y1="469.99" x2="817.31" y2="469.99"/>
</g>
<g class="st12">
	<g>
		<polyline class="st13" points="826.49,495.49 826.49,496.99 824.99,496.99 		"/>
		<line class="st14" x1="821.97" y1="496.99" x2="575.82" y2="496.99"/>
		<polyline class="st13" points="574.31,496.99 572.81,496.99 572.81,495.49 		"/>
		<line class="st15" x1="572.81" y1="492.49" x2="572.81" y2="409.99"/>
		<polyline class="st13" points="572.81,408.49 572.81,406.99 574.31,406.99 		"/>
		<line class="st14" x1="577.33" y1="406.99" x2="823.48" y2="406.99"/>
		<polyline class="st13" points="824.99,406.99 826.49,406.99 826.49,408.49 		"/>
		<line class="st15" x1="826.49" y1="411.49" x2="826.49" y2="493.99"/>
	</g>
</g>
<rect x="698.81" y="208.99" class="st16" width="108" height="72"/>
<g class="st12">
	<g>
		<line class="st13" x1="752.81" y1="510.3" x2="752.81" y2="658.01"/>
		<g>
			<polygon class="st6" points="749.82,511.17 752.81,505.99 755.81,511.17 			"/>
		</g>
		<g>
			<polygon class="st6" points="749.82,657.13 752.81,662.31 755.81,657.13 			"/>
		</g>
	</g>
</g>
<rect x="832.5" y="503.29" class="st16" width="112.74" height="77.4"/>
<g>
	<rect x="843.28" y="514.19" class="st11" width="90" height="54"/>
	<line class="st11" x1="888.28" y1="550.19" x2="888.28" y2="577.19"/>
	<line class="st11" x1="888.28" y1="505.19" x2="888.28" y2="532.19"/>
	<circle class="st11" cx="888.28" cy="541.19" r="5.11"/>
	<polygon class="st6" points="891.9,541.19 888.62,539.29 888.62,543.08 	"/>
	<polygon class="st6" points="884.24,541.19 887.53,543.08 887.53,539.29 	"/>
</g>
<g>
	<rect x="842.53" y="599.31" class="st11" width="90" height="54"/>
	<line class="st11" x1="887.53" y1="635.31" x2="887.53" y2="662.31"/>
	<line class="st11" x1="887.53" y1="590.31" x2="887.53" y2="617.31"/>
	<circle class="st11" cx="887.53" cy="626.31" r="5.11"/>
	<polygon class="st6" points="891.16,626.31 887.87,624.42 887.87,628.21 	"/>
	<polygon class="st6" points="883.49,626.31 886.78,628.21 886.78,624.42 	"/>
</g>
<g>
	<rect x="839.02" y="685.99" class="st11" width="29.93" height="27"/>
	<line class="st11" x1="839.02" y1="685.99" x2="868.96" y2="712.99"/>
	<line class="st11" x1="868.96" y1="685.99" x2="839.02" y2="712.99"/>
</g>
<g>
	<rect x="873.7" y="685.99" class="st11" width="29.93" height="27"/>
	<line class="st11" x1="873.7" y1="685.99" x2="903.63" y2="712.99"/>
	<line class="st11" x1="903.63" y1="685.99" x2="873.7" y2="712.99"/>
</g>
<g>
	<rect x="908.37" y="685.99" class="st11" width="29.93" height="27"/>
	<line class="st11" x1="908.37" y1="685.99" x2="938.31" y2="712.99"/>
	<line class="st11" x1="938.31" y1="685.99" x2="908.37" y2="712.99"/>
</g>
<rect x="831.5" y="671.94" class="st16" width="112.74" height="59.06"/>
<g>
	<g>
		<line class="st17" x1="842.62" y1="721.99" x2="919.73" y2="721.99"/>
		<g>
			<polygon class="st6" points="919,724.5 923.34,721.99 919,719.49 			"/>
		</g>
	</g>
</g>
<line class="st18" x1="615.46" y1="648.81" x2="831.5" y2="701.46"/>
<line class="st18" x1="615.46" y1="514.19" x2="831.5" y2="541.99"/>
<line class="st19" x1="656.66" y1="621.2" x2="837.65" y2="626.31"/>
<g>
	<rect x="733.5" y="695.25" class="st11" width="54" height="35.48"/>
	<line class="st11" x1="733.5" y1="695.25" x2="787.5" y2="730.73"/>
	<line class="st11" x1="787.5" y1="695.25" x2="733.5" y2="730.73"/>
</g>
<line class="st19" x1="663.18" y1="685.99" x2="730.48" y2="712.99"/>
<g>
	<rect x="686.06" y="748.99" class="st11" width="27.33" height="20.5"/>
	<line class="st11" x1="686.06" y1="748.99" x2="713.4" y2="769.49"/>
	<line class="st11" x1="713.4" y1="748.99" x2="686.06" y2="769.49"/>
</g>
<g>
	<rect x="732.56" y="748.99" class="st11" width="54" height="27"/>
	<line class="st11" x1="732.56" y1="748.99" x2="786.56" y2="775.99"/>
	<line class="st11" x1="786.56" y1="748.99" x2="732.56" y2="775.99"/>
</g>
<g>
	<line class="st10" x1="734.06" y1="784.99" x2="786.56" y2="784.99"/>
	<line class="st10" x1="734.06" y1="789.49" x2="786.56" y2="789.49"/>
	<line class="st10" x1="734.06" y1="793.99" x2="786.56" y2="793.99"/>
</g>
<line class="st20" x1="626.72" y1="721.99" x2="680.35" y2="748.99"/>
<g>
	<line class="st10" x1="739.02" y1="883.99" x2="775.02" y2="883.99"/>
	<line class="st10" x1="739.02" y1="888.49" x2="775.02" y2="888.49"/>
	<line class="st10" x1="739.02" y1="892.99" x2="775.02" y2="892.99"/>
</g>
<g>
	<rect x="740.81" y="904.79" class="st11" width="27" height="27"/>
	<line class="st11" x1="740.81" y1="904.79" x2="767.81" y2="931.79"/>
	<line class="st11" x1="767.81" y1="904.79" x2="740.81" y2="931.79"/>
</g>
<g>
	<line class="st10" x1="773.06" y1="913.79" x2="800.06" y2="913.79"/>
	<line class="st10" x1="773.06" y1="918.29" x2="800.06" y2="918.29"/>
	<line class="st10" x1="773.06" y1="922.79" x2="800.06" y2="922.79"/>
</g>
<g>
	<rect x="727.31" y="947.25" class="st11" width="54" height="35.48"/>
	<line class="st11" x1="727.31" y1="947.25" x2="781.31" y2="982.73"/>
	<line class="st11" x1="781.31" y1="947.25" x2="727.31" y2="982.73"/>
</g>
<rect x="714.45" y="937.13" class="st16" width="78.87" height="54.86"/>
<g>
	<rect x="738.19" y="997.34" class="st11" width="27" height="27"/>
	<line class="st11" x1="738.19" y1="997.34" x2="765.19" y2="1024.34"/>
	<line class="st11" x1="765.19" y1="997.34" x2="738.19" y2="1024.34"/>
</g>
<g>
	<line class="st10" x1="770.44" y1="1006.34" x2="797.44" y2="1006.34"/>
	<line class="st10" x1="770.44" y1="1010.84" x2="797.44" y2="1010.84"/>
	<line class="st10" x1="770.44" y1="1015.34" x2="797.44" y2="1015.34"/>
</g>
<g>
	<line class="st10" x1="733.69" y1="1038.95" x2="769.69" y2="1038.95"/>
	<line class="st10" x1="733.69" y1="1043.45" x2="769.69" y2="1043.45"/>
	<line class="st10" x1="733.69" y1="1047.95" x2="769.69" y2="1047.95"/>
</g>
<text transform="matrix(1 0 0 1 977.3329 37.9934)" class="st21 st3 st4">ANOTACIONES</text>
<rect x="977.33" y="75.46" class="st22" width="33.1" height="9.78"/>
<text transform="matrix(1 0 0 1 977.3327 82.9933)" class="st21 st3 st4">1.1 </text>
<rect x="977.33" y="98.75" class="st22" width="80.44" height="24.15"/>
<text transform="matrix(1 0 0 1 977.3332 106.2839)"><tspan x="0" y="0" class="st21 st3 st4">1.2 Gráfico (mapa </tspan><tspan x="0" y="10.8" class="st21 st3 st4">ubicador)</tspan></text>
<rect x="977.33" y="136.41" class="st22" width="80.44" height="45.58"/>
<text transform="matrix(1 0 0 1 977.3332 143.9453)"><tspan x="0" y="0" class="st21 st3 st4">2.1 Texto y Gráfico </tspan><tspan x="0" y="10.8" class="st21 st3 st4">(gráfico de distrib</tspan><tspan x="70.8" y="10.8" class="st21 st3 st4">-</tspan><tspan x="0" y="21.6" class="st21 st3 st4">ción de espacio)</tspan></text>
<rect x="977.33" y="181.7" class="st22" width="80.44" height="45.58"/>
<text transform="matrix(1 0 0 1 977.3332 189.2358)"><tspan x="0" y="0" class="st21 st3 st4">2.2 Gráfico de línea </tspan><tspan x="0" y="10.8" class="st21 st3 st4">de tiempo y foto de </tspan><tspan x="0" y="21.6" class="st21 st3 st4">Tlaloc</tspan></text>
<rect x="977.33" y="227.28" class="st22" width="80.44" height="17.71"/>
<text transform="matrix(1 0 0 1 977.3332 234.8169)" class="st21 st3 st4">2.2 Texto y foto</text>
<g>
	<rect x="779.81" y="285.49" class="st11" width="36" height="27"/>
	<line class="st11" x1="779.81" y1="285.49" x2="815.81" y2="312.49"/>
	<line class="st11" x1="815.81" y1="285.49" x2="779.81" y2="312.49"/>
</g>
<rect x="977.33" y="254.14" class="st22" width="80.44" height="35.85"/>
<text transform="matrix(1 0 0 1 977.3332 261.6721)"><tspan x="0" y="0" class="st21 st3 st4">2.3 Fotos con textos </tspan><tspan x="0" y="10.8" class="st21 st3 st4">de descripción de </tspan><tspan x="0" y="21.6" class="st21 st3 st4">cada uno</tspan></text>
<rect x="977.33" y="316.85" class="st22" width="80.44" height="35.85"/>
<text transform="matrix(1 0 0 1 977.3332 324.3816)"><tspan x="0" y="0" class="st21 st3 st4">3.1 Gráfico de mapa, </tspan><tspan x="0" y="10.8" class="st21 st3 st4">diagrama, foto y </tspan><tspan x="0" y="21.6" class="st21 st3 st4">texto</tspan></text>
<rect x="977.33" y="359.7" class="st22" width="80.44" height="35.85"/>
<text transform="matrix(1 0 0 1 977.3332 367.2335)"><tspan x="0" y="0" class="st21 st3 st4">3.2 Gráfico de mapa, </tspan><tspan x="0" y="10.8" class="st21 st3 st4">diagrama, foto y </tspan><tspan x="0" y="21.6" class="st21 st3 st4">texto</tspan></text>
<rect x="977.33" y="402.55" class="st22" width="80.44" height="85.44"/>
<text transform="matrix(1 0 0 1 977.3332 410.085)"><tspan x="0" y="0" class="st21 st3 st4">3.3 Gráfico de mapa, </tspan><tspan x="0" y="10.8" class="st21 st3 st4">diagrama, foto y </tspan><tspan x="0" y="21.6" class="st21 st3 st4">texto</tspan><tspan x="0" y="43.2" class="st21 st3 st4">Transición entre foto </tspan><tspan x="0" y="54" class="st21 st3 st4">de véstíbulo y </tspan><tspan x="0" y="64.8" class="st21 st3 st4">pirámide de Copilco</tspan></text>
<rect x="977.33" y="498.47" class="st22" width="80.44" height="34.52"/>
<text transform="matrix(1 0 0 1 977.3332 506.0009)"><tspan x="0" y="0" class="st21 st3 st4">3.4 Gráfico de mapa, </tspan><tspan x="0" y="10.8" class="st21 st3 st4">diagrama, foto y </tspan><tspan x="0" y="21.6" class="st21 st3 st4">texto</tspan></text>
<rect x="977.33" y="543.47" class="st22" width="80.44" height="34.52"/>
<text transform="matrix(1 0 0 1 977.3332 551.0009)"><tspan x="0" y="0" class="st21 st3 st4">3.5 Gráfico de mapa, </tspan><tspan x="0" y="10.8" class="st21 st3 st4">diagrama, foto y </tspan><tspan x="0" y="21.6" class="st21 st3 st4">texto</tspan></text>
<rect x="977.33" y="588.47" class="st22" width="80.44" height="34.52"/>
<text transform="matrix(1 0 0 1 977.3332 596.0009)"><tspan x="0" y="0" class="st21 st3 st4">3.6 Gráfico de mapa, </tspan><tspan x="0" y="10.8" class="st21 st3 st4">diagrama, foto y </tspan><tspan x="0" y="21.6" class="st21 st3 st4">texto</tspan></text>
<rect x="977.33" y="631.55" class="st22" width="80.44" height="63.7"/>
<text transform="matrix(1 0 0 1 977.3332 639.0847)"><tspan x="0" y="0" class="st21 st3 st4">3.7 Gráfico de mapa, </tspan><tspan x="0" y="10.8" class="st21 st3 st4">gráfico de transición </tspan><tspan x="0" y="21.6" class="st21 st3 st4">entre Uxmal y el </tspan><tspan x="0" y="32.4" class="st21 st3 st4">patio central, texto</tspan></text>
<rect x="979.2" y="695.07" class="st22" width="80.44" height="74.43"/>
<text transform="matrix(1 0 0 1 979.202 702.5984)"><tspan x="0" y="0" class="st21 st3 st4">3.8 Gráfico de mapa, </tspan><tspan x="0" y="10.8" class="st21 st3 st4">diagrama del </tspan><tspan x="0" y="21.6" class="st21 st3 st4">paraguas, transición </tspan><tspan x="0" y="32.4" class="st21 st3 st4">animada de la </tspan><tspan x="0" y="43.2" class="st21 st3 st4">estrtuctura del </tspan><tspan x="0" y="54" class="st21 st3 st4">paraguas</tspan></text>
<rect x="977.33" y="780.79" class="st22" width="80.44" height="53.99"/>
<text transform="matrix(1 0 0 1 977.3332 788.3272)"><tspan x="0" y="0" class="st21 st3 st4">3.9 Gráfico de la </tspan><tspan x="0" y="10.8" class="st21 st3 st4">columna del </tspan><tspan x="0" y="21.6" class="st21 st3 st4">paraguas señalando </tspan><tspan x="0" y="32.4" class="st21 st3 st4">su simbología</tspan></text>
<rect x="977.33" y="846.08" class="st22" width="80.44" height="35.85"/>
<text transform="matrix(1 0 0 1 977.3332 853.616)"><tspan x="0" y="0" class="st21 st3 st4">3.10 Gráfico de </tspan><tspan x="0" y="10.8" class="st21 st3 st4">mapa, diagrama, foto </tspan><tspan x="0" y="21.6" class="st21 st3 st4">y texto</tspan></text>
<rect x="977.33" y="895.86" class="st22" width="80.44" height="15.13"/>
<text transform="matrix(1 0 0 1 977.3332 903.3916)" class="st21 st3 st4">4.1 Texto</text>
<rect x="977.33" y="920.32" class="st22" width="80.44" height="15.13"/>
<text transform="matrix(1 0 0 1 977.3332 927.8547)" class="st21 st3 st4">4.2  foto y Texto</text>
<rect x="977.33" y="939.69" class="st22" width="69.86" height="27.2"/>
<text transform="matrix(1 0 0 1 977.3332 947.2199)"><tspan x="0" y="0" class="st21 st3 st4">4.3. Gráfico </tspan><tspan x="0" y="10.8" class="st21 st3 st4">comparativo</tspan></text>
<rect x="977.33" y="978.39" class="st22" width="69.86" height="27.2"/>
<text transform="matrix(1 0 0 1 977.3332 985.9247)" class="st21 st3 st4">4.4 Foto y texto</text>
<rect x="977.33" y="1005.39" class="st22" width="69.86" height="27.2"/>
<text transform="matrix(1 0 0 1 977.3332 1012.9247)" class="st21 st3 st4">4.5 texto</text>
</svg>
