<?xml version="1.0" encoding="UTF-8"?>
<svg id="Capa_2" xmlns="http://www.w3.org/2000/svg" viewBox="0 0 937.76 1613.75">
  <defs>
    <style>
      .cls-1 {
        letter-spacing: 0em;
      }

      .cls-2, .cls-3 {
        font-family: ArialMT, Arial;
      }

      .cls-2, .cls-4 {
        font-size: 10px;
      }

      .cls-3 {
        font-size: 8px;
      }

      .cls-5 {
        letter-spacing: 0em;
      }

      .cls-6 {
        stroke-dasharray: 8.97 8.97 8.97 8.97;
      }

      .cls-6, .cls-7, .cls-8, .cls-9, .cls-10, .cls-11, .cls-12, .cls-13, .cls-14, .cls-15, .cls-16 {
        stroke-miterlimit: 10;
      }

      .cls-6, .cls-7, .cls-8, .cls-10, .cls-11, .cls-12, .cls-14, .cls-15, .cls-16 {
        fill: none;
      }

      .cls-6, .cls-7, .cls-8, .cls-11, .cls-12, .cls-14, .cls-15, .cls-16 {
        stroke: #e71d1b;
        stroke-width: 1.42px;
      }

      .cls-17 {
        letter-spacing: -.04em;
      }

      .cls-4 {
        font-family: Arial-BoldMT, Arial;
        font-weight: 700;
      }

      .cls-18 {
        letter-spacing: 0em;
      }

      .cls-7 {
        stroke-dasharray: 7.44 7.44 7.44 7.44 7.44 7.44;
      }

      .cls-8 {
        stroke-dasharray: 8.5 8.5 8.5 8.5 8.5 8.5;
      }

      .cls-19 {
        letter-spacing: -.04em;
      }

      .cls-20 {
        fill: #ccc;
      }

      .cls-21 {
        letter-spacing: -.06em;
      }

      .cls-9 {
        stroke-width: 2.13px;
      }

      .cls-9, .cls-10, .cls-13 {
        stroke: #1d1d1b;
      }

      .cls-9, .cls-13 {
        fill: #fff;
      }

      .cls-11 {
        stroke-dasharray: 8.38 8.38 8.38 8.38 8.38 8.38;
      }

      .cls-22 {
        letter-spacing: -.07em;
      }

      .cls-23 {
        letter-spacing: -.02em;
      }

      .cls-24 {
        letter-spacing: -.04em;
      }

      .cls-25 {
        letter-spacing: 0em;
      }

      .cls-12 {
        stroke-dasharray: 8.38 8.38 8.38 8.38;
      }

      .cls-26 {
        letter-spacing: -.06em;
      }

      .cls-27 {
        letter-spacing: -.06em;
      }

      .cls-28 {
        letter-spacing: -.07em;
      }

      .cls-29 {
        letter-spacing: -.04em;
      }

      .cls-30 {
        letter-spacing: -.07em;
      }

      .cls-31 {
        letter-spacing: -.07em;
      }

      .cls-32 {
        letter-spacing: -.07em;
      }

      .cls-14 {
        stroke-dasharray: 8.97 8.97 8.97 8.97 8.97 8.97;
      }

      .cls-15 {
        stroke-dasharray: 7.44 7.44 7.44 7.44;
      }

      .cls-33 {
        letter-spacing: -.02em;
      }

      .cls-34 {
        letter-spacing: -.02em;
      }

      .cls-35 {
        letter-spacing: -.02em;
      }
    </style>
  </defs>
  <g id="tEXTO">
    <rect class="cls-20" x="457.72" y="26.36" width="171" height="1569.07"/>
    <text class="cls-4" transform="translate(19.73 9.32) scale(.9 1)"><tspan x="0" y="0" xml:space="preserve">MH                            TEMAS                                 </tspan></text>
    <text class="cls-4" transform="translate(213.35 8.58) scale(.9 1)"><tspan x="0" y="0">SUBTEMAS</tspan><tspan x="-32.59" y="12">(COLUMN</tspan><tspan class="cls-17" x="14.63" y="12">A</tspan><tspan x="21.48" y="12" xml:space="preserve"> VERTEBRAL)</tspan></text>
    <text class="cls-4" transform="translate(335.77 9.89) scale(.9 1)"><tspan x="0" y="0">ARCO NARR</tspan><tspan class="cls-32" x="61.11" y="0">A</tspan><tspan class="cls-25" x="67.59" y="0">TIVO</tspan></text>
    <text class="cls-4" transform="translate(479.52 9.79) scale(.9 1)"><tspan x="0" y="0">S</tspan><tspan class="cls-34" x="6.67" y="0">T</tspan><tspan class="cls-25" x="12.6" y="0">O</tspan><tspan class="cls-19" x="20.38" y="0">R</tspan><tspan x="27.23" y="0">YBOARD / WIREFRAME</tspan></text>
    <text class="cls-4" transform="translate(644.95 9.81) scale(.9 1)"><tspan x="0" y="0">COMEN</tspan><tspan class="cls-31" x="37.22" y="0">T</tspan><tspan class="cls-1" x="42.59" y="0">ARIOS DE</tspan><tspan class="cls-34" x="90.93" y="0">L</tspan><tspan x="96.86" y="0" xml:space="preserve"> WIREFRAME</tspan></text>
    <text class="cls-2" transform="translate(22.31 265.42) scale(.9 1)"><tspan x="0" y="0">IGLESI</tspan><tspan class="cls-21" x="32.24" y="0">A</tspan><tspan x="-24.71" y="12" xml:space="preserve">DE CHIU CHIU       </tspan></text>
    <g>
      <path d="M85.74,112.18h-.75v-5.6c-.18.2-.42.4-.71.61-.29.2-.55.35-.79.45v-.85c.42-.23.78-.51,1.09-.84.31-.33.53-.65.66-.96h.48v7.19Z"/>
      <path d="M88.07,112.18v-1h.85v1h-.85Z"/>
      <path d="M102.45,112.18l2.33-7.16h.87l2.49,7.16h-.92l-.71-2.17h-2.54l-.67,2.17h-.85ZM104.21,109.24h2.06l-.63-1.98c-.19-.6-.34-1.1-.43-1.48-.08.46-.19.91-.33,1.37l-.67,2.1Z"/>
      <path d="M108.79,112.18v-7.16h2.69c.54,0,.95.06,1.24.19s.51.36.68.68c.17.33.25.69.25,1.08,0,.51-.14.94-.42,1.28-.28.35-.71.57-1.29.66.21.12.37.24.48.36.23.25.46.57.67.95l1.06,1.95h-1.01l-.8-1.49c-.23-.43-.43-.76-.58-.99-.15-.23-.29-.39-.41-.48-.12-.09-.24-.15-.37-.19-.09-.02-.24-.03-.45-.03h-.93v3.18h-.8ZM109.6,108.18h1.73c.37,0,.66-.04.86-.13s.36-.23.47-.43c.11-.2.16-.41.16-.64,0-.34-.1-.62-.31-.83s-.54-.33-.99-.33h-1.92v2.37Z"/>
      <path d="M119.52,111.41c.37.3.72.52,1.03.66l-.24.66c-.44-.19-.87-.48-1.31-.88-.45.3-.95.44-1.49.44s-1.05-.16-1.5-.47-.79-.75-1.03-1.32-.36-1.2-.36-1.91.12-1.35.36-1.93.59-1.02,1.04-1.32c.45-.3.95-.45,1.51-.45s1.07.16,1.52.47.79.75,1.03,1.32c.24.56.35,1.2.35,1.91,0,.59-.08,1.12-.23,1.59-.15.47-.38.88-.69,1.23ZM117.75,110.2c.46.15.85.38,1.15.68.47-.51.71-1.27.71-2.29,0-.58-.08-1.09-.25-1.52s-.41-.77-.73-1.01c-.32-.24-.68-.36-1.08-.36-.6,0-1.1.24-1.49.73-.4.48-.59,1.21-.59,2.17s.2,1.65.59,2.14.89.75,1.5.75c.29,0,.56-.06.81-.19-.25-.19-.52-.33-.8-.41l.19-.69Z"/>
      <path d="M125.5,105.02h.8v4.14c0,.72-.07,1.29-.21,1.71s-.39.77-.75,1.03c-.36.27-.83.4-1.42.4s-1.03-.12-1.4-.35c-.36-.23-.62-.57-.77-1s-.23-1.04-.23-1.79v-4.14h.8v4.13c0,.62.05,1.08.15,1.37s.27.52.51.68c.24.16.53.24.88.24.59,0,1.01-.16,1.26-.47s.38-.92.38-1.82v-4.13Z"/>
      <path d="M127.78,112.18v-7.16h.8v7.16h-.8Z"/>
      <path d="M131.55,112.18v-6.31h-2v-.84h4.82v.84h-2.01v6.31h-.8Z"/>
      <path d="M135.21,112.18v-7.16h4.39v.84h-3.59v2.19h3.36v.84h-3.36v2.44h3.73v.84h-4.53Z"/>
      <path d="M145.19,109.67l.8.24c-.17.78-.47,1.37-.91,1.78s-.97.61-1.61.61-1.19-.16-1.6-.47c-.41-.31-.72-.77-.94-1.36-.21-.6-.32-1.24-.32-1.92,0-.75.12-1.4.36-1.95.24-.56.59-.98,1.03-1.26s.94-.43,1.47-.43c.61,0,1.12.18,1.53.55s.7.88.87,1.54l-.79.22c-.14-.52-.35-.9-.61-1.14s-.6-.36-1.01-.36c-.47,0-.86.13-1.17.4s-.53.62-.66,1.06-.19.9-.19,1.37c0,.61.08,1.14.23,1.59.15.45.38.79.7,1.02s.66.34,1.03.34c.45,0,.83-.15,1.14-.46.31-.31.52-.76.63-1.36Z"/>
      <path d="M148.53,112.18v-6.31h-2v-.84h4.82v.84h-2.01v6.31h-.8Z"/>
      <path d="M156.15,105.02h.8v4.14c0,.72-.07,1.29-.21,1.71s-.39.77-.75,1.03c-.36.27-.83.4-1.42.4s-1.03-.12-1.4-.35c-.36-.23-.62-.57-.77-1s-.23-1.04-.23-1.79v-4.14h.8v4.13c0,.62.05,1.08.15,1.37s.27.52.51.68c.24.16.53.24.88.24.59,0,1.01-.16,1.26-.47s.38-.92.38-1.82v-4.13Z"/>
      <path d="M158.31,112.18v-7.16h2.69c.54,0,.95.06,1.24.19s.51.36.68.68c.17.33.25.69.25,1.08,0,.51-.14.94-.42,1.28-.28.35-.71.57-1.29.66.21.12.37.24.48.36.23.25.46.57.67.95l1.06,1.95h-1.01l-.8-1.49c-.23-.43-.43-.76-.58-.99-.15-.23-.29-.39-.41-.48-.12-.09-.24-.15-.37-.19-.09-.02-.24-.03-.45-.03h-.93v3.18h-.8ZM159.11,108.18h1.73c.37,0,.66-.04.86-.13s.36-.23.47-.43c.11-.2.16-.41.16-.64,0-.34-.1-.62-.31-.83s-.54-.33-.99-.33h-1.92v2.37Z"/>
      <path d="M163.76,112.18l2.33-7.16h.87l2.49,7.16h-.92l-.71-2.17h-2.54l-.67,2.17h-.85ZM165.51,109.24h2.06l-.63-1.98c-.19-.6-.34-1.1-.43-1.48-.08.46-.19.91-.33,1.37l-.67,2.1Z"/>
    </g>
    <text class="cls-2" transform="translate(83.68 438.18) scale(.85 1)"><tspan x="0" y="0">2. RELIGIOSO</tspan></text>
    <text class="cls-2" transform="translate(212.56 59.95) scale(.85 1)"><tspan x="0" y="0">1.1 UBICACIÓN</tspan><tspan x="0" y="24">1.2 IGLESI</tspan><tspan class="cls-27" x="48.92" y="24">A </tspan><tspan x="57.26" y="24">ANDIN</tspan><tspan class="cls-27" x="88.37" y="24">A</tspan><tspan x="94.49" y="24"> </tspan><tspan x="0" y="36">(COM</tspan><tspan class="cls-28" x="26.66" y="36">P</tspan><tspan x="32.59" y="36">ARACIÓN)</tspan><tspan x="0" y="60">1.3 M</tspan><tspan class="cls-28" x="25.01" y="60">A</tspan><tspan x="30.94" y="60">TERIALIDAD DE </tspan><tspan x="0" y="72">CONSTRUCCIÓN</tspan><tspan x="0" y="96">1.4 DE</tspan><tspan class="cls-22" x="30.57" y="96">T</tspan><tspan x="35.94" y="96">ALLES DE </tspan><tspan x="0" y="108">CONSTRUCCIÓN</tspan><tspan x="0" y="132" xml:space="preserve">1.5 ESTILOS  </tspan><tspan x="0" y="144">ARQUITÉC</tspan><tspan class="cls-23" x="51.67" y="144">T</tspan><tspan class="cls-5" x="57.6" y="144">ONICOS</tspan><tspan x="0" y="180">1.6 VIS</tspan><tspan class="cls-22" x="32.8" y="180">T</tspan><tspan class="cls-26" x="38.16" y="180">A</tspan><tspan x="44.28" y="180" xml:space="preserve"> DE PLAN</tspan><tspan class="cls-22" x="89.85" y="180">T</tspan><tspan class="cls-27" x="95.22" y="180">A</tspan></text>
    <text class="cls-2" transform="translate(209.63 380.95) scale(.85 1)"><tspan x="0" y="0" xml:space="preserve"> 2.1 COMPONENTES</tspan><tspan x="0" y="24">2.2 SINCRETISMO</tspan><tspan x="0" y="36" xml:space="preserve"> (VIS</tspan><tspan class="cls-22" x="22.23" y="36">T</tspan><tspan x="27.59" y="36">AS)</tspan><tspan x="0" y="60">2.3</tspan><tspan class="cls-27" x="13.9" y="60"> </tspan><tspan x="16.13" y="60">A</tspan><tspan class="cls-35" x="22.8" y="60">R</tspan><tspan x="29.84" y="60">TE SAGRADO</tspan><tspan x="0" y="84">2.4 CONNO</tspan><tspan class="cls-22" x="53.9" y="84">T</tspan><tspan x="59.27" y="84">ACIÓN </tspan><tspan x="0" y="96">ESPIRITUA</tspan><tspan class="cls-29" x="52.79" y="96">L</tspan><tspan x="0" y="120">2.5 </tspan><tspan class="cls-28" x="16.68" y="120">PA</tspan><tspan class="cls-18" x="28.53" y="120">TRONO </tspan></text>
    <text class="cls-2" transform="translate(334.37 59.95) scale(.85 1)"><tspan x="0" y="0">EXPOSICIÓN</tspan><tspan x="0" y="48">ACCIÓN</tspan><tspan class="cls-26" x="38.89" y="48"> </tspan><tspan x="41.12" y="48">ASCENDENTE</tspan><tspan x="0" y="96">CLÍMAX</tspan><tspan x="0" y="132">ACCIÓN DESCENDENTE</tspan><tspan x="0" y="180">DESENLACE</tspan></text>
    <text class="cls-2" transform="translate(333.27 381.34) scale(.85 1)"><tspan x="0" y="0">EXPOSICIÓN</tspan><tspan x="0" y="24">ACCIÓN</tspan><tspan class="cls-26" x="38.89" y="24"> </tspan><tspan x="41.12" y="24">ASCENDENTE</tspan><tspan x="0" y="60">CLÍMAX</tspan><tspan x="0" y="84">ACCIÓN DESCENDENTE</tspan><tspan x="0" y="120">DESENLACE</tspan></text>
    <g>
      <rect class="cls-13" x="470.51" y="61.36" width="145" height="81.5"/>
      <line class="cls-13" x1="470.51" y1="142.86" x2="615.51" y2="61.36"/>
      <line class="cls-13" x1="615.51" y1="142.86" x2="470.51" y2="61.36"/>
    </g>
    <text class="cls-2" transform="translate(645.27 39.66) scale(.85 1)"><tspan x="0" y="0">1.1</tspan><tspan class="cls-35" x="13.9" y="0"> </tspan><tspan x="16.5" y="0">TEX</tspan><tspan class="cls-23" x="35.95" y="0">T</tspan><tspan x="41.88" y="0">O CON OBJE</tspan><tspan class="cls-35" x="103.55" y="0">T</tspan><tspan x="109.48" y="0">O SVG (TEX</tspan><tspan class="cls-23" x="166.71" y="0">T</tspan><tspan class="cls-5" x="172.64" y="0">O CON D</tspan><tspan class="cls-28" x="215.41" y="0">A</tspan><tspan class="cls-23" x="221.34" y="0">T</tspan><tspan x="227.27" y="0">OS DE UBICACIÓN</tspan><tspan class="cls-35" x="316.73" y="0" xml:space="preserve"> Y</tspan><tspan x="0" y="12">OBJE</tspan><tspan class="cls-35" x="26.12" y="12">T</tspan><tspan x="32.05" y="12">O SVG “MA</tspan><tspan class="cls-28" x="84.83" y="12">P</tspan><tspan class="cls-26" x="90.76" y="12">A</tspan><tspan x="96.88" y="12" xml:space="preserve"> DE UBICACIÓN</tspan><tspan class="cls-35" x="171.88" y="12" xml:space="preserve"> Y</tspan><tspan x="180.97" y="12" xml:space="preserve"> GRÁFICO DE</tspan><tspan class="cls-26" x="245.98" y="12"> </tspan><tspan x="248.2" y="12">A</tspan><tspan class="cls-28" x="254.87" y="12">L</tspan><tspan class="cls-18" x="259.69" y="12">TURA”)</tspan><tspan x="0" y="132">1.2</tspan><tspan class="cls-35" x="13.9" y="132"> </tspan><tspan x="16.5" y="132">TEX</tspan><tspan class="cls-23" x="35.95" y="132">T</tspan><tspan x="41.88" y="132">O</tspan><tspan class="cls-35" x="49.65" y="132" xml:space="preserve"> Y</tspan><tspan x="58.74" y="132" xml:space="preserve"> OBJE</tspan><tspan class="cls-35" x="87.64" y="132">T</tspan><tspan x="93.56" y="132">O SVG (TEX</tspan><tspan class="cls-23" x="150.8" y="132">T</tspan><tspan x="156.72" y="132">O CON CARACTERÍSTICAS DE </tspan><tspan x="0" y="144">LAS IGLESIAS</tspan><tspan class="cls-26" x="67.26" y="144"> </tspan><tspan class="cls-5" x="69.48" y="144">ANDINAS</tspan><tspan class="cls-35" x="113.94" y="144" xml:space="preserve"> Y</tspan><tspan x="123.02" y="144" xml:space="preserve"> OBJE</tspan><tspan class="cls-35" x="151.92" y="144">T</tspan><tspan x="157.85" y="144">O SVG “GRÁFICO DE COM</tspan><tspan class="cls-22" x="283.96" y="144">P</tspan><tspan class="cls-5" x="289.89" y="144">ARACIÓN </tspan><tspan x="0" y="156">DE IGLESIAS”)</tspan><tspan x="0" y="264">1.3</tspan><tspan class="cls-35" x="13.9" y="264"> </tspan><tspan x="16.5" y="264">TEX</tspan><tspan class="cls-23" x="35.95" y="264">T</tspan><tspan x="41.88" y="264">O</tspan><tspan class="cls-35" x="49.65" y="264" xml:space="preserve"> Y</tspan><tspan x="58.74" y="264" xml:space="preserve"> OBJE</tspan><tspan class="cls-35" x="87.64" y="264">T</tspan><tspan x="93.56" y="264">O SVG (TEX</tspan><tspan class="cls-23" x="150.8" y="264">T</tspan><tspan x="156.72" y="264">O CON E</tspan><tspan class="cls-29" x="198.95" y="264">L</tspan><tspan x="204.14" y="264" xml:space="preserve"> DE</tspan><tspan class="cls-22" x="220.81" y="264">T</tspan><tspan x="226.18" y="264">ALLE DE M</tspan><tspan class="cls-28" x="278.42" y="264">A</tspan><tspan class="cls-18" x="284.35" y="264">TERIALES</tspan><tspan class="cls-35" x="332.69" y="264" xml:space="preserve"> Y</tspan><tspan x="341.78" y="264"> </tspan><tspan x="0" y="276">OBJE</tspan><tspan class="cls-35" x="26.12" y="276">T</tspan><tspan x="32.05" y="276">O SVG “CU</tspan><tspan class="cls-28" x="84.27" y="276">A</tspan><tspan class="cls-18" x="90.2" y="276">TRO ICONOS DE M</tspan><tspan class="cls-22" x="181.31" y="276">A</tspan><tspan x="187.24" y="276">TERIALES”)</tspan><tspan x="0" y="420">1.4</tspan><tspan class="cls-35" x="13.9" y="420"> </tspan><tspan x="16.5" y="420">TEX</tspan><tspan class="cls-23" x="35.95" y="420">T</tspan><tspan x="41.88" y="420">O</tspan><tspan class="cls-35" x="49.65" y="420" xml:space="preserve"> Y</tspan><tspan x="58.74" y="420" xml:space="preserve"> GRÁFIC</tspan><tspan class="cls-26" x="99.3" y="420">A</tspan><tspan x="105.42" y="420" xml:space="preserve"> CON OBJE</tspan><tspan class="cls-35" x="159.31" y="420">T</tspan><tspan x="165.24" y="420">O SVG (TEX</tspan><tspan class="cls-23" x="222.47" y="420">T</tspan><tspan class="cls-5" x="228.4" y="420">O CON INFORMACIÓN </tspan><tspan x="0" y="432">DE DE</tspan><tspan class="cls-22" x="30.56" y="432">T</tspan><tspan x="35.93" y="432">ALLES:</tspan><tspan class="cls-35" x="69.84" y="432"> </tspan><tspan class="cls-18" x="72.44" y="432">TERMINACIONES, DIMENSION DE</tspan><tspan class="cls-26" x="234.67" y="432"> </tspan><tspan class="cls-5" x="236.9" y="432">ADOBE</tspan><tspan class="cls-35" x="271.91" y="432" xml:space="preserve"> Y</tspan><tspan x="281" y="432" xml:space="preserve"> PRIMER</tspan><tspan class="cls-26" x="322.67" y="432">A</tspan><tspan x="328.78" y="432"> </tspan><tspan x="0" y="444">N</tspan><tspan class="cls-28" x="7.22" y="444">A</tspan><tspan x="13.15" y="444">VE,</tspan><tspan class="cls-35" x="29.27" y="444" xml:space="preserve"> Y</tspan><tspan x="38.35" y="444" xml:space="preserve"> OBJE</tspan><tspan class="cls-23" x="67.25" y="444">T</tspan><tspan class="cls-5" x="73.18" y="444">O SVG “ILUSTRACIÓN PRINCI</tspan><tspan class="cls-28" x="214.86" y="444">P</tspan><tspan x="220.79" y="444">A</tspan><tspan class="cls-24" x="227.46" y="444">L</tspan><tspan class="cls-18" x="232.65" y="444"> </tspan><tspan x="0" y="456">CON DE</tspan><tspan class="cls-22" x="38.89" y="456">T</tspan><tspan x="44.26" y="456">ALLES</tspan><tspan class="cls-26" x="75.39" y="456"> </tspan><tspan class="cls-5" x="77.62" y="456">ARQUITECTÓNICOS”)</tspan><tspan x="0" y="588">1.5</tspan><tspan class="cls-35" x="13.9" y="588"> </tspan><tspan x="16.5" y="588">TEX</tspan><tspan class="cls-23" x="35.95" y="588">T</tspan><tspan x="41.88" y="588">O</tspan><tspan class="cls-35" x="49.65" y="588" xml:space="preserve"> Y</tspan><tspan x="58.74" y="588" xml:space="preserve"> GRÁFIC</tspan><tspan class="cls-26" x="99.3" y="588">A</tspan><tspan x="105.42" y="588" xml:space="preserve"> (TEX</tspan><tspan class="cls-35" x="130.97" y="588">T</tspan><tspan x="136.9" y="588">O CON ESTILOS</tspan><tspan class="cls-26" x="214.69" y="588"> </tspan><tspan class="cls-5" x="216.92" y="588">ARQUITECTÓNICOS,</tspan><tspan class="cls-35" x="0" y="600">Y</tspan><tspan x="6.49" y="600" xml:space="preserve"> CAROUSE</tspan><tspan class="cls-29" x="58.72" y="600">L</tspan><tspan x="63.91" y="600" xml:space="preserve"> “CROSS</tspan><tspan class="cls-26" x="105.58" y="600">F</tspan><tspan x="111.14" y="600">ADE” , CON</tspan><tspan class="cls-35" x="165.59" y="600"> </tspan><tspan x="168.18" y="600">TRES IMÁGENES EN PNG DE LAS </tspan><tspan x="0" y="612">PRINCI</tspan><tspan class="cls-28" x="33.89" y="612">P</tspan><tspan x="39.82" y="612">ALES INTE</tspan><tspan class="cls-35" x="90.95" y="612">R</tspan><tspan x="97.99" y="612">VENCIONES)</tspan><tspan x="0" y="732">1.6</tspan><tspan class="cls-35" x="13.9" y="732"> </tspan><tspan x="16.5" y="732">TEX</tspan><tspan class="cls-23" x="35.95" y="732">T</tspan><tspan x="41.88" y="732">O</tspan><tspan class="cls-35" x="49.65" y="732" xml:space="preserve"> Y</tspan><tspan x="58.74" y="732" xml:space="preserve"> OBJE</tspan><tspan class="cls-35" x="87.64" y="732">T</tspan><tspan x="93.56" y="732">O SVG (TEX</tspan><tspan class="cls-23" x="150.8" y="732">T</tspan><tspan x="156.72" y="732">O DE VIS</tspan><tspan class="cls-22" x="200.07" y="732">T</tspan><tspan class="cls-26" x="205.43" y="732">A</tspan><tspan x="211.55" y="732" xml:space="preserve"> DE PLAN</tspan><tspan class="cls-30" x="257.12" y="732">T</tspan><tspan class="cls-27" x="262.49" y="732">A</tspan><tspan class="cls-35" x="268.61" y="732" xml:space="preserve"> Y</tspan><tspan x="277.7" y="732" xml:space="preserve"> OBJE</tspan><tspan class="cls-23" x="306.59" y="732">T</tspan><tspan class="cls-5" x="312.52" y="732">O </tspan><tspan x="0" y="744">SVG CON “MA</tspan><tspan class="cls-28" x="67.23" y="744">P</tspan><tspan class="cls-26" x="73.15" y="744">A</tspan><tspan x="79.27" y="744" xml:space="preserve"> DE PLAN</tspan><tspan class="cls-30" x="124.84" y="744">T</tspan><tspan class="cls-5" x="130.21" y="744">A”)</tspan></text>
    <g>
      <rect class="cls-13" x="505.75" y="196.36" width="76" height="76"/>
      <line class="cls-13" x1="505.75" y1="272.36" x2="581.75" y2="196.36"/>
      <line class="cls-13" x1="581.75" y1="272.36" x2="505.75" y2="196.36"/>
    </g>
    <g>
      <rect class="cls-13" x="468.26" y="493.86" width="150" height="90.5" transform="translate(1086.51 1078.23) rotate(180)"/>
      <line class="cls-13" x1="618.26" y1="493.86" x2="468.26" y2="584.36"/>
      <line class="cls-13" x1="468.26" y1="493.86" x2="618.26" y2="584.36"/>
    </g>
    <g>
      <rect class="cls-13" x="501.51" y="768.36" width="93" height="155.07"/>
      <line class="cls-13" x1="501.51" y1="923.43" x2="594.51" y2="768.36"/>
      <line class="cls-13" x1="594.51" y1="923.43" x2="501.51" y2="768.36"/>
    </g>
    <text class="cls-3" transform="translate(513.89 762.93)"><tspan x="0" y="0">Lorem ipsum </tspan></text>
    <text class="cls-2" transform="translate(645.39 950.5) scale(.85 1)"><tspan x="0" y="0" xml:space="preserve"> 2.1</tspan><tspan class="cls-35" x="16.68" y="0"> </tspan><tspan x="19.28" y="0">TEX</tspan><tspan class="cls-35" x="38.73" y="0">T</tspan><tspan x="44.65" y="0">O</tspan><tspan class="cls-35" x="52.43" y="0" xml:space="preserve"> Y</tspan><tspan x="61.52" y="0" xml:space="preserve"> OBJE</tspan><tspan class="cls-35" x="90.41" y="0">T</tspan><tspan x="96.34" y="0">O SVG (TEX</tspan><tspan class="cls-35" x="153.57" y="0">T</tspan><tspan x="159.5" y="0">O CON E</tspan><tspan class="cls-29" x="201.73" y="0">L</tspan><tspan x="206.92" y="0" xml:space="preserve"> DE</tspan><tspan class="cls-30" x="223.59" y="0">T</tspan><tspan class="cls-5" x="228.96" y="0">ALLE DE LOS </tspan><tspan x="0" y="12">COMPONENTES</tspan><tspan class="cls-35" x="78.34" y="12" xml:space="preserve"> Y</tspan><tspan x="87.43" y="12" xml:space="preserve"> OBJE</tspan><tspan class="cls-23" x="116.32" y="12">T</tspan><tspan x="122.25" y="12">O SVG “GRÁFICO DE PIC</tspan><tspan class="cls-23" x="241.71" y="12">T</tspan><tspan class="cls-5" x="247.64" y="12">OGRAM</tspan><tspan class="cls-26" x="285.41" y="12">A</tspan><tspan x="291.53" y="12" xml:space="preserve"> DE</tspan><tspan x="0" y="24">LOS ELEMEN</tspan><tspan class="cls-35" x="63.91" y="24">T</tspan><tspan x="69.84" y="24">OS”)</tspan><tspan x="0" y="144">2.2</tspan><tspan class="cls-35" x="13.9" y="144"> </tspan><tspan x="16.5" y="144">TEX</tspan><tspan class="cls-23" x="35.95" y="144">T</tspan><tspan x="41.88" y="144">O</tspan><tspan class="cls-35" x="49.65" y="144" xml:space="preserve"> Y</tspan><tspan x="58.74" y="144" xml:space="preserve"> GRÁFIC</tspan><tspan class="cls-26" x="99.3" y="144">A</tspan><tspan x="105.42" y="144" xml:space="preserve"> (</tspan><tspan class="cls-18" x="111.52" y="144">TEX</tspan><tspan class="cls-35" x="130.97" y="144">T</tspan><tspan x="136.9" y="144">O CON SINCRETISMO,</tspan><tspan class="cls-35" x="244.68" y="144" xml:space="preserve"> Y</tspan><tspan x="253.77" y="144" xml:space="preserve"> CAROUSE</tspan><tspan class="cls-29" x="306" y="144">L</tspan><tspan x="311.19" y="144"> </tspan><tspan x="0" y="156">“BASIC EXAMPLES” , CON CU</tspan><tspan class="cls-22" x="141.14" y="156">A</tspan><tspan x="147.07" y="156">TRO IMÁGENES EN PNG</tspan><tspan class="cls-18" x="264.86" y="156" xml:space="preserve"> DE LAS VIS</tspan><tspan class="cls-22" x="322.1" y="156">T</tspan><tspan x="327.47" y="156">AS </tspan><tspan x="0" y="168">DE L</tspan><tspan class="cls-26" x="22.23" y="168">A</tspan><tspan x="28.35" y="168" xml:space="preserve"> IGLESI</tspan><tspan class="cls-26" x="63.36" y="168">A</tspan><tspan x="69.48" y="168" xml:space="preserve"> DENTRO DE</tspan><tspan class="cls-24" x="131.15" y="168">L</tspan><tspan class="cls-18" x="136.34" y="168" xml:space="preserve"> RECIN</tspan><tspan class="cls-23" x="170.23" y="168">T</tspan><tspan class="cls-5" x="176.16" y="168">O</tspan><tspan class="cls-26" x="183.94" y="168"> </tspan><tspan x="186.17" y="168">AMURALLADO)</tspan><tspan x="0" y="180"> </tspan><tspan x="0" y="312">2.3</tspan><tspan class="cls-35" x="13.9" y="312"> </tspan><tspan x="16.5" y="312">TEX</tspan><tspan class="cls-23" x="35.95" y="312">T</tspan><tspan x="41.88" y="312">O CON IMAGEN (TEX</tspan><tspan class="cls-23" x="142.44" y="312">T</tspan><tspan x="148.36" y="312">O CON INFORMACIÓN DE</tspan><tspan class="cls-29" x="271.7" y="312">L</tspan><tspan class="cls-26" x="276.89" y="312"> </tspan><tspan class="cls-5" x="279.12" y="312">A</tspan><tspan class="cls-35" x="285.79" y="312">R</tspan><tspan class="cls-18" x="292.83" y="312">TE </tspan><tspan x="0" y="324">SAGRADO E IMAGEN EN PNG)</tspan><tspan x="0" y="480">2.4</tspan><tspan class="cls-35" x="13.9" y="480"> </tspan><tspan x="16.5" y="480">TEX</tspan><tspan class="cls-23" x="35.95" y="480">T</tspan><tspan x="41.88" y="480">O</tspan><tspan class="cls-35" x="49.65" y="480"> </tspan><tspan class="cls-33" x="52.25" y="480">Y</tspan><tspan x="58.74" y="480" xml:space="preserve"> OBJE</tspan><tspan class="cls-35" x="87.64" y="480">T</tspan><tspan x="93.56" y="480">O SVG (TEX</tspan><tspan class="cls-23" x="150.8" y="480">T</tspan><tspan x="156.72" y="480">O CON INFORMACIÓN DE L</tspan><tspan class="cls-27" x="288.4" y="480">A</tspan><tspan x="0" y="492">CONNO</tspan><tspan class="cls-22" x="37.22" y="492">T</tspan><tspan x="42.59" y="492">ACIÓN</tspan><tspan class="cls-35" x="74.26" y="492"> </tspan><tspan class="cls-33" x="76.86" y="492">Y</tspan><tspan x="83.34" y="492" xml:space="preserve"> OBJE</tspan><tspan class="cls-35" x="112.24" y="492">T</tspan><tspan x="118.17" y="492">O SVG DE</tspan><tspan class="cls-24" x="166.51" y="492">L</tspan><tspan class="cls-18" x="171.7" y="492" xml:space="preserve"> “DIAGRAMA”)</tspan><tspan x="0" y="636">2.5</tspan><tspan class="cls-35" x="13.9" y="636"> </tspan><tspan x="16.5" y="636">TEX</tspan><tspan class="cls-23" x="35.95" y="636">T</tspan><tspan x="41.88" y="636">O (</tspan><tspan class="cls-28" x="55.76" y="636">PA</tspan><tspan x="67.62" y="636">TRONO)</tspan></text>
    <line class="cls-10" x1="302.51" y1="56.36" x2="330.51" y2="56.1"/>
    <polyline class="cls-10" points="83.51 97.94 76.51 97.94 76.51 444.56 83.51 444.56"/>
    <polyline class="cls-10" points="200.72 47.4 193.72 47.4 193.72 245.01 200.72 245.01"/>
    <polyline class="cls-10" points="200.74 369.4 193.74 369.4 193.74 507.01 200.74 507.01"/>
    <polyline class="cls-10" points="302.13 75.75 309.13 75.75 309.13 132.36 302.13 132.36"/>
    <line class="cls-10" x1="308.51" y1="104.19" x2="330.63" y2="103.93"/>
    <line class="cls-10" x1="302.51" y1="152.19" x2="330.51" y2="151.93"/>
    <line class="cls-10" x1="302.84" y1="236.19" x2="330.84" y2="235.93"/>
    <line class="cls-10" x1="302.51" y1="189.19" x2="330.51" y2="188.93"/>
    <g>
      <polyline class="cls-16" points="625.09 587.11 625.09 591.36 620.84 591.36"/>
      <line class="cls-6" x1="611.87" y1="591.36" x2="580.48" y2="591.36"/>
      <line class="cls-14" x1="575.99" y1="591.36" x2="472.83" y2="591.36"/>
      <polyline class="cls-16" points="468.35 591.36 464.09 591.36 464.09 587.11"/>
      <line class="cls-15" x1="464.09" y1="579.67" x2="464.09" y2="553.63"/>
      <line class="cls-7" x1="464.09" y1="549.91" x2="464.09" y2="464.34"/>
      <polyline class="cls-16" points="464.09 460.62 464.09 456.36 468.35 456.36"/>
      <line class="cls-6" x1="477.32" y1="456.36" x2="508.71" y2="456.36"/>
      <line class="cls-14" x1="513.2" y1="456.36" x2="616.36" y2="456.36"/>
      <polyline class="cls-16" points="620.84 456.36 625.09 456.36 625.09 460.62"/>
      <line class="cls-15" x1="625.09" y1="468.06" x2="625.09" y2="494.1"/>
      <line class="cls-7" x1="625.09" y1="497.82" x2="625.09" y2="583.39"/>
    </g>
    <line class="cls-10" x1="192.95" y1="438.33" x2="185.45" y2="438.08"/>
    <line class="cls-10" x1="192.97" y1="146.32" x2="185.47" y2="146.08"/>
    <line class="cls-10" x1="75.9" y1="268.11" x2="68.4" y2="267.87"/>
    <line class="cls-10" x1="302.84" y1="377.36" x2="330.84" y2="377.1"/>
    <line class="cls-10" x1="302.84" y1="402.36" x2="330.84" y2="402.1"/>
    <line class="cls-10" x1="302.84" y1="438.36" x2="330.84" y2="438.1"/>
    <line class="cls-10" x1="302.84" y1="460.36" x2="330.84" y2="460.1"/>
    <line class="cls-10" x1="302.84" y1="497.36" x2="330.84" y2="497.1"/>
    <g>
      <rect class="cls-13" x="469" y="306.61" width="149.5" height="128.25"/>
      <line class="cls-13" x1="469" y1="434.86" x2="618.5" y2="306.61"/>
      <line class="cls-13" x1="618.5" y1="434.86" x2="469" y2="306.61"/>
    </g>
    <g>
      <text class="cls-3" transform="translate(503.1 466.65)"><tspan x="0" y="0" xml:space="preserve">Lorem ipsum dolor sit  </tspan></text>
      <g>
        <path class="cls-9" d="M470.35,473.36h145"/>
        <path class="cls-9" d="M470.35,479.86h145"/>
        <path class="cls-9" d="M470.35,486.86h145"/>
      </g>
    </g>
    <g>
      <text class="cls-3" transform="translate(503.27 37.11)"><tspan x="0" y="0" xml:space="preserve">Lorem ipsum dolor sit  </tspan></text>
      <g>
        <path class="cls-9" d="M470.51,43.82h145"/>
        <path class="cls-9" d="M470.51,50.32h145"/>
        <path class="cls-9" d="M470.51,57.32h145"/>
      </g>
    </g>
    <g>
      <text class="cls-3" transform="translate(503.34 168.69)"><tspan x="0" y="0" xml:space="preserve">Lorem ipsum dolor sit  </tspan></text>
      <g>
        <path class="cls-9" d="M470.58,175.4h145"/>
        <path class="cls-9" d="M470.58,181.9h145"/>
        <path class="cls-9" d="M470.58,188.9h145"/>
      </g>
    </g>
    <g>
      <path class="cls-9" d="M470.04,292.86h145"/>
      <path class="cls-9" d="M470.04,299.86h145"/>
    </g>
    <g>
      <text class="cls-3" transform="translate(502.98 616.4)"><tspan x="0" y="0" xml:space="preserve">Lorem ipsum dolor sit  </tspan></text>
      <g>
        <path class="cls-9" d="M470.23,623.11h145"/>
        <path class="cls-9" d="M470.23,629.61h145"/>
        <path class="cls-9" d="M470.23,636.61h145"/>
      </g>
    </g>
    <g>
      <rect class="cls-13" x="467.45" y="647.65" width="150" height="90.5" transform="translate(1084.91 1385.79) rotate(180)"/>
      <line class="cls-13" x1="617.45" y1="647.65" x2="467.45" y2="738.15"/>
      <line class="cls-13" x1="467.45" y1="647.65" x2="617.45" y2="738.15"/>
    </g>
    <g>
      <g>
        <text class="cls-3" transform="translate(503.69 1084.72)"><tspan x="0" y="0" xml:space="preserve">Lorem ipsum dolor sit  </tspan></text>
        <g>
          <path class="cls-9" d="M470.94,1091.44h145"/>
          <path class="cls-9" d="M470.94,1097.94h145"/>
          <path class="cls-9" d="M470.94,1104.94h145"/>
        </g>
      </g>
      <g>
        <rect class="cls-13" x="468.34" y="1110.58" width="150" height="119.28" transform="translate(1086.67 2340.44) rotate(180)"/>
        <line class="cls-13" x1="618.34" y1="1110.58" x2="468.34" y2="1229.86"/>
        <line class="cls-13" x1="468.34" y1="1110.58" x2="618.34" y2="1229.86"/>
      </g>
    </g>
    <g>
      <g>
        <polyline class="cls-16" points="623.44 1397.22 623.44 1401.47 619.19 1401.47"/>
        <line class="cls-6" x1="610.22" y1="1401.47" x2="578.82" y2="1401.47"/>
        <line class="cls-14" x1="574.34" y1="1401.47" x2="471.18" y2="1401.47"/>
        <polyline class="cls-16" points="466.69 1401.47 462.44 1401.47 462.44 1397.22"/>
        <line class="cls-12" x1="462.44" y1="1388.84" x2="462.44" y2="1359.5"/>
        <line class="cls-11" x1="462.44" y1="1355.31" x2="462.44" y2="1258.92"/>
        <polyline class="cls-16" points="462.44 1254.72 462.44 1250.47 466.69 1250.47"/>
        <line class="cls-6" x1="475.66" y1="1250.47" x2="507.06" y2="1250.47"/>
        <line class="cls-14" x1="511.55" y1="1250.47" x2="614.71" y2="1250.47"/>
        <polyline class="cls-16" points="619.19 1250.47 623.44 1250.47 623.44 1254.72"/>
        <line class="cls-12" x1="623.44" y1="1263.11" x2="623.44" y2="1292.44"/>
        <line class="cls-11" x1="623.44" y1="1296.64" x2="623.44" y2="1393.03"/>
      </g>
      <g>
        <g>
          <rect class="cls-13" x="504.94" y="1287.75" width="76" height="107.5"/>
          <line class="cls-13" x1="504.94" y1="1395.25" x2="580.94" y2="1287.75"/>
          <line class="cls-13" x1="580.94" y1="1395.25" x2="504.94" y2="1287.75"/>
        </g>
        <g>
          <text class="cls-3" transform="translate(503.2 1262.42)"><tspan x="0" y="0" xml:space="preserve">Lorem ipsum dolor sit  </tspan></text>
          <g>
            <path class="cls-9" d="M470.44,1269.13h145"/>
            <path class="cls-9" d="M470.44,1275.63h145"/>
            <path class="cls-9" d="M470.44,1282.63h145"/>
          </g>
        </g>
      </g>
    </g>
    <g>
      <path class="cls-9" d="M470.72,1581.43h145"/>
      <path class="cls-9" d="M470.72,1588.43h145"/>
    </g>
    <g>
      <g>
        <rect class="cls-13" x="490.94" y="956.68" width="106.5" height="102.19"/>
        <line class="cls-13" x1="490.94" y1="1058.86" x2="597.44" y2="956.68"/>
        <line class="cls-13" x1="597.44" y1="1058.86" x2="490.94" y2="956.68"/>
      </g>
      <g>
        <path class="cls-9" d="M471.69,944.86h145"/>
        <path class="cls-9" d="M471.69,951.86h145"/>
      </g>
    </g>
    <polyline class="cls-8" points="370.49 154.86 444.49 154.86 448.49 470.86 461.99 471.13"/>
    <g>
      <path class="cls-9" d="M470.4,1454.61h145"/>
      <g>
        <g>
          <rect class="cls-13" x="471.21" y="1468.86" width="142" height="91"/>
          <line class="cls-13" x1="471.21" y1="1559.86" x2="613.21" y2="1468.86"/>
          <line class="cls-13" x1="613.21" y1="1559.86" x2="471.21" y2="1468.86"/>
        </g>
        <text class="cls-3" transform="translate(503.21 1427.27)"><tspan x="0" y="0" xml:space="preserve">Lorem ipsum dolor sit  </tspan></text>
        <g>
          <path class="cls-9" d="M470.45,1433.98h145"/>
          <path class="cls-9" d="M470.45,1440.48h145"/>
          <path class="cls-9" d="M470.45,1447.48h145"/>
        </g>
        <path class="cls-9" d="M470.4,1461.61h145"/>
      </g>
    </g>
    <text/>
    <polyline class="cls-8" points="368.01 437.36 437.01 437.36 439.01 1319.36 457.51 1319.64"/>
  </g>
</svg>