<?xml version="1.0" encoding="utf-8"?>
<!-- Generator: Adobe Illustrator 27.9.6, SVG Export Plug-In . SVG Version: 9.03 Build 54986)  -->
<svg version="1.1" id="Capa_1" xmlns="http://www.w3.org/2000/svg" xmlns:xlink="http://www.w3.org/1999/xlink" x="0px" y="0px"
	 viewBox="0 0 1700 2000" style="enable-background:new 0 0 1700 2000;" xml:space="preserve">
<style type="text/css">
	.st0{fill:#E6E6E6;}
	.st1{fill:none;stroke:#000000;stroke-width:2;stroke-miterlimit:10;}
	.st2{fill:#FFFFFF;stroke:#000000;stroke-width:2;stroke-miterlimit:10;}
	.st3{font-family:'MyriadPro-Regular';}
	.st4{font-size:18px;}
	.st5{fill:#0000FF;}
	.st6{fill:none;stroke:#0000FF;stroke-width:3;stroke-miterlimit:10;}
	.st7{fill:none;stroke:#0000FF;stroke-width:3;stroke-miterlimit:10;stroke-dasharray:11.7241,11.7241;}
	.st8{fill:none;stroke:#0000FF;stroke-width:3;stroke-miterlimit:10;stroke-dasharray:12.6176,12.6176;}
	.st9{fill:none;stroke:#0000FF;stroke-width:3;stroke-miterlimit:10;stroke-dasharray:11.9767,11.9767;}
</style>
<rect x="874" y="22" class="st0" width="462" height="1956"/>
<line class="st1" x1="945.5" y1="183.5" x2="1260.92" y2="183.5"/>
<line class="st1" x1="945.5" y1="208.5" x2="1260.92" y2="208.5"/>
<line class="st1" x1="1089" y1="255" x2="1261.42" y2="255"/>
<line class="st1" x1="1089" y1="280" x2="1261.42" y2="280"/>
<line class="st1" x1="1089" y1="305" x2="1261.42" y2="305"/>
<line class="st1" x1="945.5" y1="698.5" x2="1260.92" y2="698.5"/>
<line class="st1" x1="945.5" y1="723.5" x2="1260.92" y2="723.5"/>
<line class="st1" x1="945.5" y1="748.5" x2="1260.92" y2="748.5"/>
<line class="st1" x1="945" y1="487.5" x2="1076" y2="487.5"/>
<line class="st1" x1="945" y1="512.5" x2="1076" y2="512.5"/>
<line class="st1" x1="945" y1="537.5" x2="1076" y2="537.5"/>
<g>
	<rect x="900" y="67" class="st2" width="410" height="78"/>
	<line class="st1" x1="1310" y1="67" x2="900" y2="145"/>
	<line class="st1" x1="900" y1="67" x2="1310" y2="145"/>
</g>
<g>
	<rect x="945" y="360" class="st2" width="316" height="78"/>
	<line class="st1" x1="1261" y1="360" x2="945" y2="438"/>
	<line class="st1" x1="945" y1="360" x2="1261" y2="438"/>
</g>
<g>
	<rect x="945" y="596" class="st2" width="316" height="78"/>
	<line class="st2" x1="1261" y1="596" x2="945" y2="674"/>
	<line class="st2" x1="945" y1="596" x2="1261" y2="674"/>
</g>
<line class="st1" x1="945.5" y1="1641.5" x2="1260.92" y2="1641.5"/>
<line class="st1" x1="945.5" y1="1666.5" x2="1260.92" y2="1666.5"/>
<line class="st1" x1="945.5" y1="1691.5" x2="1260.92" y2="1691.5"/>
<g>
	<rect x="945" y="1531" class="st2" width="316" height="78"/>
	<line class="st1" x1="1261" y1="1531" x2="945" y2="1609"/>
	<line class="st1" x1="945" y1="1531" x2="1261" y2="1609"/>
</g>
<g>
	<rect x="945" y="1862" class="st2" width="316" height="78"/>
	<line class="st1" x1="1261" y1="1862" x2="945" y2="1940"/>
	<line class="st1" x1="945" y1="1862" x2="1261" y2="1940"/>
</g>
<g>
	<rect x="945" y="779" class="st2" width="179" height="139"/>
	<line class="st1" x1="1124" y1="779" x2="945" y2="918"/>
	<line class="st1" x1="945" y1="779" x2="1124" y2="918"/>
</g>
<g>
	<rect x="1103" y="473" class="st2" width="158" height="78"/>
	<line class="st1" x1="1261" y1="473" x2="1103" y2="551"/>
	<line class="st1" x1="1103" y1="473" x2="1261" y2="551"/>
</g>
<g>
	<rect x="943" y="237" class="st2" width="115" height="78"/>
	<line class="st1" x1="1058" y1="237" x2="943" y2="315"/>
	<line class="st1" x1="943" y1="237" x2="1058" y2="315"/>
</g>
<line class="st1" x1="945" y1="1326.5" x2="1090.92" y2="1326.5"/>
<line class="st1" x1="945" y1="1351.5" x2="1090.92" y2="1351.5"/>
<line class="st1" x1="945" y1="1376.5" x2="1090.92" y2="1376.5"/>
<g>
	<rect x="1103" y="1312" class="st2" width="158" height="78"/>
	<line class="st1" x1="1261" y1="1312" x2="1103" y2="1390"/>
	<line class="st1" x1="1103" y1="1312" x2="1261" y2="1390"/>
</g>
<line class="st1" x1="943" y1="1021.97" x2="1093.32" y2="1021.97"/>
<line class="st1" x1="943" y1="1039" x2="1093.32" y2="1039"/>
<line class="st1" x1="1138" y1="886.5" x2="1260.92" y2="886.5"/>
<line class="st1" x1="1138" y1="911.5" x2="1260.92" y2="911.5"/>
<line class="st1" x1="1138" y1="841.5" x2="1260.92" y2="841.5"/>
<line class="st1" x1="1138" y1="856.5" x2="1260.92" y2="856.5"/>
<g>
	<rect x="944.66" y="941" class="st2" width="66.44" height="64.78"/>
	<line class="st1" x1="1011.1" y1="941" x2="944.66" y2="1005.78"/>
	<line class="st1" x1="944.66" y1="941" x2="1011.1" y2="1005.78"/>
</g>
<g>
	<rect x="1026.88" y="941" class="st2" width="66.44" height="64.78"/>
	<line class="st1" x1="1093.32" y1="941" x2="1026.88" y2="1005.78"/>
	<line class="st1" x1="1026.88" y1="941" x2="1093.32" y2="1005.78"/>
</g>
<line class="st1" x1="1108.35" y1="1021.97" x2="1258.68" y2="1021.97"/>
<line class="st1" x1="1108.35" y1="1039" x2="1258.68" y2="1039"/>
<g>
	<rect x="1110.02" y="941" class="st2" width="66.44" height="64.78"/>
	<line class="st1" x1="1176.46" y1="941" x2="1110.02" y2="1005.78"/>
	<line class="st1" x1="1110.02" y1="941" x2="1176.46" y2="1005.78"/>
</g>
<g>
	<rect x="1204.24" y="941" class="st2" width="66.44" height="64.78"/>
	<line class="st1" x1="1270.68" y1="941" x2="1204.24" y2="1005.78"/>
	<line class="st1" x1="1204.24" y1="941" x2="1270.68" y2="1005.78"/>
</g>
<line class="st1" x1="943" y1="1136.97" x2="1093.32" y2="1136.97"/>
<line class="st1" x1="943" y1="1154" x2="1093.32" y2="1154"/>
<g>
	<rect x="944.66" y="1056" class="st2" width="66.44" height="64.78"/>
	<line class="st1" x1="1011.1" y1="1056" x2="944.66" y2="1120.78"/>
	<line class="st1" x1="944.66" y1="1056" x2="1011.1" y2="1120.78"/>
</g>
<g>
	<rect x="1026.88" y="1056" class="st2" width="66.44" height="64.78"/>
	<line class="st1" x1="1093.32" y1="1056" x2="1026.88" y2="1120.78"/>
	<line class="st1" x1="1026.88" y1="1056" x2="1093.32" y2="1120.78"/>
</g>
<line class="st1" x1="1108.35" y1="1136.97" x2="1258.68" y2="1136.97"/>
<line class="st1" x1="1108.35" y1="1154" x2="1258.68" y2="1154"/>
<g>
	<rect x="1110.02" y="1056" class="st2" width="66.44" height="64.78"/>
	<line class="st1" x1="1176.46" y1="1056" x2="1110.02" y2="1120.78"/>
	<line class="st1" x1="1110.02" y1="1056" x2="1176.46" y2="1120.78"/>
</g>
<g>
	<rect x="1204.24" y="1056" class="st2" width="66.44" height="64.78"/>
	<line class="st1" x1="1270.68" y1="1056" x2="1204.24" y2="1120.78"/>
	<line class="st1" x1="1204.24" y1="1056" x2="1270.68" y2="1120.78"/>
</g>
<line class="st1" x1="943" y1="1251.97" x2="1093.32" y2="1251.97"/>
<line class="st1" x1="943" y1="1269" x2="1093.32" y2="1269"/>
<g>
	<rect x="944.66" y="1171" class="st2" width="66.44" height="64.78"/>
	<line class="st1" x1="1011.1" y1="1171" x2="944.66" y2="1235.78"/>
	<line class="st1" x1="944.66" y1="1171" x2="1011.1" y2="1235.78"/>
</g>
<g>
	<rect x="1026.88" y="1171" class="st2" width="66.44" height="64.78"/>
	<line class="st1" x1="1093.32" y1="1171" x2="1026.88" y2="1235.78"/>
	<line class="st1" x1="1026.88" y1="1171" x2="1093.32" y2="1235.78"/>
</g>
<line class="st1" x1="1108.35" y1="1251.97" x2="1258.68" y2="1251.97"/>
<line class="st1" x1="1108.35" y1="1269" x2="1258.68" y2="1269"/>
<g>
	<rect x="1110.02" y="1171" class="st2" width="66.44" height="64.78"/>
	<line class="st1" x1="1176.46" y1="1171" x2="1110.02" y2="1235.78"/>
	<line class="st1" x1="1110.02" y1="1171" x2="1176.46" y2="1235.78"/>
</g>
<g>
	<rect x="1204.24" y="1171" class="st2" width="66.44" height="64.78"/>
	<line class="st1" x1="1270.68" y1="1171" x2="1204.24" y2="1235.78"/>
	<line class="st1" x1="1204.24" y1="1171" x2="1270.68" y2="1235.78"/>
</g>
<text transform="matrix(1 0 0 1 1372.0801 103.6743)" class="st3 st4">1.1 Imagen de cabecera</text>
<text transform="matrix(1 0 0 1 1372.0801 208.6743)" class="st3 st4">1.2 Texto título</text>
<text transform="matrix(1 0 0 1 1372.0801 391.6743)" class="st3 st4">1.4 Ilustración principal</text>
<text transform="matrix(1 0 0 1 1370.0801 291.6743)" class="st3 st4">1.3 Logo y Bajada</text>
<text transform="matrix(1 0 0 1 1372.0801 512.6743)" class="st3 st4">1.5 Imagen Mapa Tomé</text>
<text transform="matrix(1 0 0 1 1372.0801 673.6743)" class="st3 st4">2.1 Texto e imagen línea de tiempo</text>
<text transform="matrix(1 0 0 1 1372.0801 865.6743)" class="st3 st4">2.2 Mapa ubicación edificaciones</text>
<text transform="matrix(1 0 0 1 1372.0801 1096.6743)"><tspan x="0" y="0" class="st3 st4">2.3 Imagen fotográfica, ilustración</tspan><tspan x="0" y="21.6" class="st3 st4">y texto por edificio.</tspan></text>
<text transform="matrix(1 0 0 1 1372.0801 1340.6743)" class="st3 st4">2.4 Gráfico distancias</text>
<line class="st1" x1="1115" y1="1428.5" x2="1260.92" y2="1428.5"/>
<line class="st1" x1="1115" y1="1453.5" x2="1260.92" y2="1453.5"/>
<line class="st1" x1="1115" y1="1478.5" x2="1260.92" y2="1478.5"/>
<g>
	<rect x="945" y="1414" class="st2" width="158" height="78"/>
	<line class="st1" x1="1103" y1="1414" x2="945" y2="1492"/>
	<line class="st1" x1="945" y1="1414" x2="1103" y2="1492"/>
</g>
<line class="st1" x1="1115" y1="1751.5" x2="1260.92" y2="1751.5"/>
<line class="st1" x1="1115" y1="1776.5" x2="1260.92" y2="1776.5"/>
<line class="st1" x1="1115" y1="1801.5" x2="1260.92" y2="1801.5"/>
<g>
	<rect x="945" y="1724" class="st2" width="158" height="105"/>
	<line class="st1" x1="1103" y1="1724" x2="945" y2="1829"/>
	<line class="st1" x1="945" y1="1724" x2="1103" y2="1829"/>
</g>
<text transform="matrix(1 0 0 1 1372.0801 1453.6743)" class="st3 st4">2.5 Gráfico de tipos de vivienda</text>
<text transform="matrix(1 0 0 1 1372.0801 1578.6743)"><tspan x="0" y="0" class="st3 st4">3.1 Gif ilustración principal</tspan><tspan x="0" y="21.6" class="st3 st4">características principales y texto</tspan></text>
<text transform="matrix(1 0 0 1 1372.0801 1765.6743)" class="st3 st4">3.2 Video Documental</text>
<text transform="matrix(1 0 0 1 1372.0801 1900.6743)" class="st3 st4">3.3 Páginas RRSS y contacto</text>
<text transform="matrix(1 0 0 1 51.1382 875.5273)"><tspan x="0" y="0" class="st3 st4">Fábrica Bellavista</tspan><tspan x="0" y="21.6" class="st3 st4">Oveja Tomé</tspan></text>
<text transform="matrix(1 0 0 1 265.1382 880.5273)" class="st3 st4">2. Patrimonio actual</text>
<g>
	<g>
		<path d="M268.39,329.3h-0.04l-2.03,1.1l-0.31-1.21l2.56-1.37h1.35v11.7h-1.53V329.3z"/>
		<path d="M274.31,338.59c0-0.67,0.45-1.13,1.08-1.13s1.06,0.47,1.06,1.13c0,0.65-0.41,1.13-1.08,1.13
			C274.74,339.73,274.31,339.24,274.31,338.59z"/>
		<path d="M283.51,327.54c0.76-0.13,1.75-0.23,3.01-0.23c1.55,0,2.68,0.36,3.4,1.01c0.67,0.58,1.06,1.46,1.06,2.54
			c0,1.1-0.32,1.96-0.94,2.59c-0.83,0.88-2.18,1.33-3.71,1.33c-0.47,0-0.9-0.02-1.26-0.11v4.86h-1.57V327.54z M285.07,333.39
			c0.34,0.09,0.77,0.13,1.3,0.13c1.89,0,3.04-0.92,3.04-2.59c0-1.6-1.13-2.38-2.86-2.38c-0.68,0-1.21,0.05-1.48,0.13V333.39z"/>
		<path d="M293.03,333.53c0-1.03-0.02-1.91-0.07-2.72h1.39l0.05,1.71h0.07c0.4-1.17,1.35-1.91,2.41-1.91c0.18,0,0.31,0.02,0.45,0.05
			v1.49c-0.16-0.04-0.32-0.05-0.54-0.05c-1.12,0-1.91,0.85-2.12,2.03c-0.04,0.22-0.07,0.47-0.07,0.74v4.65h-1.57V333.53z"/>
		<path d="M299.8,335.46c0.04,2.14,1.4,3.02,2.99,3.02c1.13,0,1.82-0.2,2.41-0.45l0.27,1.13c-0.56,0.25-1.51,0.54-2.9,0.54
			c-2.68,0-4.29-1.76-4.29-4.39c0-2.63,1.55-4.7,4.09-4.7c2.84,0,3.6,2.5,3.6,4.1c0,0.32-0.04,0.58-0.05,0.74H299.8z M304.44,334.32
			c0.02-1.01-0.41-2.57-2.2-2.57c-1.6,0-2.3,1.48-2.43,2.57H304.44z"/>
		<path d="M307.72,337.91c0.47,0.31,1.3,0.63,2.09,0.63c1.15,0,1.69-0.58,1.69-1.3c0-0.76-0.45-1.17-1.62-1.6
			c-1.57-0.56-2.3-1.42-2.3-2.47c0-1.4,1.13-2.56,3.01-2.56c0.88,0,1.66,0.25,2.14,0.54l-0.4,1.15c-0.34-0.22-0.97-0.5-1.78-0.5
			c-0.94,0-1.46,0.54-1.46,1.19c0,0.72,0.52,1.04,1.66,1.48c1.51,0.58,2.29,1.33,2.29,2.63c0,1.53-1.19,2.61-3.26,2.61
			c-0.95,0-1.84-0.23-2.45-0.59L307.72,337.91z"/>
		<path d="M315.94,335.46c0.04,2.14,1.4,3.02,2.99,3.02c1.13,0,1.82-0.2,2.41-0.45l0.27,1.13c-0.56,0.25-1.51,0.54-2.9,0.54
			c-2.68,0-4.29-1.76-4.29-4.39c0-2.63,1.55-4.7,4.09-4.7c2.84,0,3.6,2.5,3.6,4.1c0,0.32-0.04,0.58-0.05,0.74H315.94z
			 M320.59,334.32c0.02-1.01-0.41-2.57-2.2-2.57c-1.6,0-2.3,1.48-2.43,2.57H320.59z"/>
		<path d="M324.08,333.17c0-0.9-0.02-1.64-0.07-2.36h1.4l0.09,1.44h0.04c0.43-0.83,1.44-1.64,2.88-1.64c1.21,0,3.08,0.72,3.08,3.71
			v5.2h-1.58v-5.02c0-1.4-0.52-2.57-2.02-2.57c-1.04,0-1.85,0.74-2.12,1.62c-0.07,0.2-0.11,0.47-0.11,0.74v5.24h-1.58V333.17z"/>
		<path d="M335.98,328.31v2.5h2.27v1.21h-2.27v4.7c0,1.08,0.31,1.69,1.19,1.69c0.41,0,0.72-0.05,0.92-0.11l0.07,1.19
			c-0.31,0.13-0.79,0.22-1.4,0.22c-0.74,0-1.33-0.23-1.71-0.67c-0.45-0.47-0.61-1.24-0.61-2.27v-4.75h-1.35v-1.21h1.35v-2.09
			L335.98,328.31z"/>
		<path d="M344.85,339.53l-0.13-1.1h-0.05c-0.49,0.68-1.42,1.3-2.67,1.3c-1.76,0-2.66-1.24-2.66-2.5c0-2.11,1.87-3.26,5.24-3.24
			v-0.18c0-0.72-0.2-2.02-1.98-2.02c-0.81,0-1.66,0.25-2.27,0.65l-0.36-1.04c0.72-0.47,1.76-0.77,2.86-0.77
			c2.67,0,3.31,1.82,3.31,3.56v3.26c0,0.76,0.04,1.49,0.14,2.09H344.85z M344.62,335.08c-1.73-0.04-3.69,0.27-3.69,1.96
			c0,1.03,0.68,1.51,1.49,1.51c1.13,0,1.85-0.72,2.11-1.46c0.05-0.16,0.09-0.34,0.09-0.5V335.08z"/>
		<path d="M354.91,339.2c-0.41,0.22-1.33,0.5-2.5,0.5c-2.63,0-4.34-1.78-4.34-4.45c0-2.68,1.84-4.63,4.68-4.63
			c0.94,0,1.76,0.23,2.2,0.45l-0.36,1.22c-0.38-0.22-0.97-0.41-1.84-0.41c-2,0-3.08,1.48-3.08,3.29c0,2.02,1.3,3.26,3.02,3.26
			c0.9,0,1.49-0.23,1.94-0.43L354.91,339.2z"/>
		<path d="M358.53,328.36c0.02,0.54-0.38,0.97-1.01,0.97c-0.56,0-0.95-0.43-0.95-0.97c0-0.56,0.41-0.99,0.99-0.99
			C358.15,327.37,358.53,327.81,358.53,328.36z M356.77,339.53v-8.71h1.58v8.71H356.77z"/>
		<path d="M368.86,335.1c0,3.22-2.23,4.63-4.34,4.63c-2.36,0-4.18-1.73-4.18-4.48c0-2.92,1.91-4.63,4.32-4.63
			C367.17,330.61,368.86,332.43,368.86,335.1z M361.95,335.19c0,1.91,1.1,3.35,2.65,3.35c1.51,0,2.65-1.42,2.65-3.39
			c0-1.48-0.74-3.35-2.61-3.35C362.76,331.8,361.95,333.53,361.95,335.19z M366.97,327.05l-2.2,2.57h-1.13l1.58-2.57H366.97z"/>
		<path d="M370.86,333.17c0-0.9-0.02-1.64-0.07-2.36h1.4l0.09,1.44h0.04c0.43-0.83,1.44-1.64,2.88-1.64c1.21,0,3.08,0.72,3.08,3.71
			v5.2h-1.58v-5.02c0-1.4-0.52-2.57-2.02-2.57c-1.04,0-1.85,0.74-2.12,1.62c-0.07,0.2-0.11,0.47-0.11,0.74v5.24h-1.58V333.17z"/>
	</g>
</g>
<text transform="matrix(1 0 0 1 517.1382 199.5273)" class="st3 st4">1.1 Título</text>
<text transform="matrix(1 0 0 1 517.1382 300.5273)" class="st3 st4">1.2 Presentación de la Fábrica</text>
<text transform="matrix(1 0 0 1 518.1382 461.5273)" class="st3 st4">1.3 Ilustración principal y ubicación</text>
<text transform="matrix(1 0 0 1 833.1382 550.5273)" class="st5 st3 st4">Climax 1</text>
<text transform="matrix(1 0 0 1 833.1382 880.5273)" class="st5 st3 st4">Climax 2</text>
<text transform="matrix(1 0 0 1 519.1382 660.5273)" class="st3 st4">2.1 Línea de tiempo</text>
<text transform="matrix(1 0 0 1 520.1382 821.5273)" class="st3 st4">2.2  Mapa actual de patrimonios</text>
<text transform="matrix(1 0 0 1 520.1382 1055.5273)" class="st3 st4">2.3  Detalle de barrio completo</text>
<text transform="matrix(1 0 0 1 520.1382 1403.5273)" class="st3 st4">2.4 Gráficos de datos recabados</text>
<text transform="matrix(1 0 0 1 520.1382 1586.5273)" class="st3 st4">3.1 Datos característicos</text>
<text transform="matrix(1 0 0 1 519.6382 1775.0273)" class="st3 st4">3.2 Dato anexo: Video sobre el patrimonio</text>
<text transform="matrix(1 0 0 1 519.1382 1891.5273)" class="st3 st4">3.3 Redes sociales de la fábrica</text>
<text transform="matrix(1 0 0 1 264.1382 1646.5273)"><tspan x="0" y="0" class="st3 st4">3. Características</tspan><tspan x="0" y="21.6" class="st3 st4">y datos</tspan></text>
<g>
	<g>
		<polyline class="st6" points="1281,560 1281,566 1275,566 		"/>
		<line class="st7" x1="1263.28" y1="566" x2="940.86" y2="566"/>
		<polyline class="st6" points="935,566 929,566 929,560 		"/>
		<line class="st8" x1="929" y1="547.38" x2="929" y2="351.81"/>
		<polyline class="st6" points="929,345.5 929,339.5 935,339.5 		"/>
		<line class="st7" x1="946.72" y1="339.5" x2="1269.14" y2="339.5"/>
		<polyline class="st6" points="1275,339.5 1281,339.5 1281,345.5 		"/>
		<line class="st8" x1="1281" y1="358.12" x2="1281" y2="553.69"/>
	</g>
</g>
<g>
	<g>
		<polyline class="st6" points="1281.5,1287.5 1281.5,1293.5 1275.5,1293.5 		"/>
		<line class="st7" x1="1263.78" y1="1293.5" x2="941.36" y2="1293.5"/>
		<polyline class="st6" points="935.5,1293.5 929.5,1293.5 929.5,1287.5 		"/>
		<line class="st9" x1="929.5" y1="1275.52" x2="929.5" y2="778.49"/>
		<polyline class="st6" points="929.5,772.5 929.5,766.5 935.5,766.5 		"/>
		<line class="st7" x1="947.22" y1="766.5" x2="1269.64" y2="766.5"/>
		<polyline class="st6" points="1275.5,766.5 1281.5,766.5 1281.5,772.5 		"/>
		<line class="st9" x1="1281.5" y1="784.48" x2="1281.5" y2="1281.51"/>
	</g>
</g>
<line class="st1" x1="233.22" y1="305.27" x2="233.22" y2="1655.13"/>
<line class="st1" x1="213.54" y1="875.71" x2="233.22" y2="875.71"/>
<line class="st1" x1="233.54" y1="305" x2="253.22" y2="305"/>
<line class="st1" x1="233.54" y1="1654.74" x2="253.22" y2="1654.74"/>
<line class="st1" x1="451.22" y1="155.08" x2="451.22" y2="566"/>
<line class="st1" x1="431.54" y1="337.26" x2="451.22" y2="337.26"/>
<line class="st1" x1="451.54" y1="155" x2="471.22" y2="155"/>
<line class="st1" x1="451.54" y1="565.88" x2="471.22" y2="565.88"/>
<line class="st1" x1="451.22" y1="636.16" x2="451.22" y2="1429"/>
<line class="st1" x1="431.54" y1="875.65" x2="451.22" y2="875.65"/>
<line class="st1" x1="451.54" y1="636" x2="471.22" y2="636"/>
<line class="st1" x1="451.54" y1="1428.77" x2="471.22" y2="1428.77"/>
<line class="st1" x1="451.22" y1="1492.09" x2="451.22" y2="1928"/>
<line class="st1" x1="431.54" y1="1633.34" x2="451.22" y2="1633.34"/>
<line class="st1" x1="451.54" y1="1492" x2="471.22" y2="1492"/>
<line class="st1" x1="451.54" y1="1927.87" x2="471.22" y2="1927.87"/>
</svg>
