<?xml version="1.0" encoding="UTF-8"?>
<svg xmlns="http://www.w3.org/2000/svg" version="1.1" viewBox="0 0 2304.2 4301.3">
  <defs>
    <style>
      .cls-1 {
        fill: #8e0c0c;
      }

      .cls-1, .cls-2, .cls-3, .cls-4, .cls-5 {
        isolation: isolate;
      }

      .cls-1, .cls-5 {
        font-family: BibliotecaSans-SemiBold, 'Biblioteca Sans';
        font-size: 25px;
        font-weight: 600;
      }

      .cls-6 {
        stroke-width: .7px;
      }

      .cls-6, .cls-7, .cls-8, .cls-9, .cls-10, .cls-11, .cls-12, .cls-13, .cls-14, .cls-15, .cls-16, .cls-17 {
        fill: #fcfcfc;
      }

      .cls-6, .cls-7, .cls-8, .cls-9, .cls-10, .cls-11, .cls-12, .cls-13, .cls-14, .cls-15, .cls-16, .cls-17, .cls-18, .cls-19, .cls-20, .cls-21, .cls-22 {
        stroke: #000;
      }

      .cls-6, .cls-7, .cls-8, .cls-9, .cls-10, .cls-11, .cls-12, .cls-13, .cls-14, .cls-15, .cls-16, .cls-17, .cls-23, .cls-24, .cls-25, .cls-26, .cls-27, .cls-28, .cls-29, .cls-30 {
        stroke-miterlimit: 10;
      }

      .cls-7 {
        stroke-width: .9px;
      }

      .cls-8 {
        stroke-width: .5px;
      }

      .cls-9 {
        stroke-width: .8px;
      }

      .cls-10 {
        stroke-width: .8px;
      }

      .cls-11 {
        stroke-width: .5px;
      }

      .cls-12 {
        stroke-width: .9px;
      }

      .cls-13 {
        stroke-width: .6px;
      }

      .cls-14 {
        stroke-width: .5px;
      }

      .cls-15 {
        stroke-width: .6px;
      }

      .cls-16 {
        stroke-width: .4px;
      }

      .cls-17 {
        stroke-width: .4px;
      }

      .cls-31 {
        stroke: #8e0c0c;
      }

      .cls-31, .cls-32, .cls-18, .cls-33, .cls-23, .cls-24, .cls-25, .cls-26, .cls-27, .cls-19, .cls-20, .cls-21, .cls-28, .cls-29, .cls-30, .cls-22 {
        fill: none;
      }

      .cls-31, .cls-32, .cls-18, .cls-33, .cls-19, .cls-20, .cls-21, .cls-22 {
        stroke-linecap: round;
        stroke-linejoin: round;
      }

      .cls-31, .cls-33 {
        stroke-dasharray: 7.3;
      }

      .cls-2 {
        font-size: 31px;
      }

      .cls-2, .cls-3 {
        font-family: BibliotecaSans-Bold, 'Biblioteca Sans';
        font-weight: 700;
      }

      .cls-2, .cls-3, .cls-34, .cls-5 {
        fill: #1d1d1b;
      }

      .cls-3 {
        font-size: 41.1px;
      }

      .cls-32 {
        stroke-dasharray: 7.7;
        stroke-width: .8px;
      }

      .cls-32, .cls-33 {
        stroke: #773535;
      }

      .cls-18 {
        stroke-dasharray: 9.6;
        stroke-width: 1px;
      }

      .cls-35 {
        fill: #e5e5e5;
      }

      .cls-33, .cls-21, .cls-22 {
        stroke-width: .8px;
      }

      .cls-23 {
        stroke-width: 1.5px;
      }

      .cls-23, .cls-24, .cls-25, .cls-26, .cls-27, .cls-28, .cls-29, .cls-30 {
        stroke: #1d1d1b;
      }

      .cls-24 {
        stroke-width: 2.3px;
      }

      .cls-25 {
        stroke-width: 2.2px;
      }

      .cls-26 {
        stroke-width: 2px;
      }

      .cls-27 {
        stroke-width: 1.6px;
      }

      .cls-19 {
        stroke-dasharray: 10.1 10.1;
      }

      .cls-19, .cls-20 {
        stroke-width: 1.1px;
      }

      .cls-28 {
        stroke-width: 2.4px;
      }

      .cls-29 {
        stroke-width: 3.3px;
      }

      .cls-30 {
        stroke-width: 3.3px;
      }

      .cls-22 {
        stroke-dasharray: 7.2 7.2;
      }
    </style>
  </defs>
  <!-- Generator: Adobe Illustrator 28.7.1, SVG Export Plug-In . SVG Version: 1.2.0 Build 142)  -->
  <g>
    <g id="Capa_1">
      <text class="cls-3" transform="translate(100.1 1441.6)"><tspan x="0" y="0">Palacio Pereira </tspan></text>
      <g class="cls-4">
        <text class="cls-2" transform="translate(458.7 265.1)"><tspan x="0" y="0">1 Introducción</tspan></text>
      </g>
      <g class="cls-4">
        <text class="cls-2" transform="translate(458.7 1680.5)"><tspan x="0" y="0">3 Arquitectura</tspan></text>
      </g>
      <g class="cls-4">
        <text class="cls-2" transform="translate(458.7 2595.6)"><tspan x="0" y="0">4 Restauración</tspan></text>
      </g>
      <g class="cls-4">
        <text class="cls-2" transform="translate(458.7 2965.6)"><tspan x="0" y="0">5 Redes Palacio</tspan></text>
      </g>
      <text class="cls-5" transform="translate(756.4 207.4)"><tspan x="0" y="0">1.1 Título</tspan></text>
      <text class="cls-5" transform="translate(1942.7 333.5)"><tspan x="0" y="0">Imagen del palacio </tspan></text>
      <text class="cls-5" transform="translate(1946.7 508.2)"><tspan x="0" y="0">Mapa ubicación</tspan></text>
      <text class="cls-5" transform="translate(1942.7 196.6)"><tspan x="0" y="0">Título</tspan></text>
      <text class="cls-5" transform="translate(756.4 1560.8)"><tspan x="0" y="0">3.1 Introducción Arquitecto</tspan></text>
      <text class="cls-5" transform="translate(756.4 1793.5)"><tspan x="0" y="0">3.3 Estilo Neoclasico</tspan></text>
      <text class="cls-5" transform="translate(756.4 1671.1)"><tspan x="0" y="0">3.2 Edificio y sus partes</tspan></text>
      <text class="cls-5" transform="translate(756.4 271.2)"><tspan x="0" y="0">1.2 Presentación del palacio </tspan></text>
      <text class="cls-5" transform="translate(756.4 331.3)"><tspan x="0" y="0">1.3 Ubicación</tspan></text>
      <polyline class="cls-25" points="430.5 253.5 390.7 253.5 390.7 2965.6 430.5 2965.6"/>
      <polyline class="cls-28" points="718.9 182.5 679.1 182.5 679.1 347.8 718.9 347.8"/>
      <polyline class="cls-27" points="718.9 1534.6 679.1 1534.6 679.1 1799.6 718.9 1799.6"/>
      <text class="cls-5" transform="translate(756.4 2466.6)"><tspan x="0" y="0">4.1 Concurso y arquitectos ganadores</tspan></text>
      <text class="cls-5" transform="translate(756.4 2541.9)"><tspan x="0" y="0">4.2 Criterios de intervención</tspan></text>
      <text class="cls-5" transform="translate(756.4 2617.1)"><tspan x="0" y="0">4.2 Proceso restauración</tspan></text>
      <polyline class="cls-23" points="718.9 2440.4 679.1 2440.4 679.1 2670 718.9 2670"/>
      <g class="cls-4">
        <text class="cls-2" transform="translate(458.7 950.9)"><tspan x="0" y="0">2 Historia</tspan></text>
      </g>
      <text class="cls-5" transform="translate(756.4 945.1)"><tspan x="0" y="0">2.2 Luis Pereira</tspan></text>
      <text class="cls-5" transform="translate(756.4 1056.5)"><tspan x="0" y="0">2.3 Linea del tiempo de hitos</tspan></text>
      <text class="cls-5" transform="translate(756.4 833.7)"><tspan x="0" y="0">2.1 Pre palacio (Contexto Histórico)</tspan></text>
      <polyline class="cls-27" points="718.9 805 679.1 805 679.1 1070 718.9 1070"/>
      <line class="cls-26" x1="422.6" y1="1424.6" x2="390.7" y2="1424.6"/>
      <rect class="cls-35" x="1266.8" y="111.7" width="443.3" height="4069"/>
      <g>
        <rect class="cls-7" x="1279" y="227.5" width="418.9" height="188.3"/>
        <line class="cls-7" x1="1697.9" y1="227.5" x2="1279" y2="415.8"/>
        <line class="cls-7" x1="1279" y1="227.5" x2="1697.9" y2="415.8"/>
      </g>
      <g>
        <rect class="cls-17" x="1490.2" y="448.9" width="192.3" height="101.9"/>
        <line class="cls-17" x1="1682.5" y1="448.9" x2="1490.2" y2="550.8"/>
        <line class="cls-17" x1="1490.2" y1="448.9" x2="1682.5" y2="550.8"/>
      </g>
      <g>
        <rect class="cls-14" x="1295.2" y="647.8" width="178.5" height="157.4"/>
        <line class="cls-14" x1="1473.7" y1="647.8" x2="1295.2" y2="805.2"/>
        <line class="cls-14" x1="1295.2" y1="647.8" x2="1473.7" y2="805.2"/>
      </g>
      <g>
        <rect class="cls-6" x="1295.2" y="1227.4" width="374.8" height="131.9"/>
        <line class="cls-6" x1="1670.1" y1="1227.4" x2="1295.2" y2="1359.3"/>
        <line class="cls-6" x1="1295.2" y1="1227.4" x2="1670.1" y2="1359.3"/>
      </g>
      <g>
        <rect class="cls-15" x="1295.2" y="937.5" width="178.5" height="176"/>
        <line class="cls-15" x1="1473.7" y1="937.5" x2="1295.2" y2="1113.5"/>
        <line class="cls-15" x1="1295.2" y1="937.5" x2="1473.7" y2="1113.5"/>
      </g>
      <g>
        <rect class="cls-13" x="1287.8" y="1478.1" width="199.4" height="188.5"/>
        <line class="cls-13" x1="1487.2" y1="1478.1" x2="1287.8" y2="1666.7"/>
        <line class="cls-13" x1="1287.8" y1="1478.1" x2="1487.2" y2="1666.7"/>
      </g>
      <g>
        <rect class="cls-12" x="1287.8" y="1794.6" width="393.6" height="229.1"/>
        <line class="cls-12" x1="1681.4" y1="1794.6" x2="1287.8" y2="2023.7"/>
        <line class="cls-12" x1="1287.8" y1="1794.6" x2="1681.4" y2="2023.7"/>
      </g>
      <g>
        <rect class="cls-10" x="1283.6" y="2369.1" width="402" height="173.5"/>
        <line class="cls-10" x1="1685.6" y1="2369.1" x2="1283.6" y2="2542.5"/>
        <line class="cls-10" x1="1283.6" y1="2369.1" x2="1685.6" y2="2542.5"/>
      </g>
      <g>
        <rect class="cls-11" x="1296.5" y="2890" width="162.7" height="137.9"/>
        <line class="cls-11" x1="1459.2" y1="2890" x2="1296.5" y2="3027.9"/>
        <line class="cls-11" x1="1296.5" y1="2890" x2="1459.2" y2="3027.9"/>
      </g>
      <g>
        <rect class="cls-11" x="1296.5" y="3398" width="162.7" height="137.9"/>
        <line class="cls-11" x1="1459.2" y1="3398" x2="1296.5" y2="3536"/>
        <line class="cls-11" x1="1296.5" y1="3398" x2="1459.2" y2="3536"/>
      </g>
      <g>
        <rect class="cls-11" x="1296.5" y="3785.6" width="162.7" height="137.9"/>
        <line class="cls-11" x1="1459.2" y1="3785.6" x2="1296.5" y2="3923.5"/>
        <line class="cls-11" x1="1296.5" y1="3785.6" x2="1459.2" y2="3923.5"/>
      </g>
      <g>
        <rect class="cls-8" x="1287.3" y="3153.5" width="181" height="162.8"/>
        <line class="cls-8" x1="1468.4" y1="3153.5" x2="1287.3" y2="3316.3"/>
        <line class="cls-8" x1="1287.3" y1="3153.5" x2="1468.4" y2="3316.3"/>
      </g>
      <g>
        <rect class="cls-12" x="1496.9" y="2166.3" width="179.7" height="104.6"/>
        <line class="cls-12" x1="1676.6" y1="2166.3" x2="1496.9" y2="2270.9"/>
        <line class="cls-12" x1="1496.9" y1="2166.3" x2="1676.6" y2="2270.9"/>
      </g>
      <g>
        <rect class="cls-12" x="1300.3" y="2166.3" width="179.7" height="104.6"/>
        <line class="cls-12" x1="1480" y1="2166.3" x2="1300.3" y2="2270.9"/>
        <line class="cls-12" x1="1300.3" y1="2166.3" x2="1480" y2="2270.9"/>
      </g>
      <g>
        <rect class="cls-12" x="1496.9" y="2042.7" width="179.7" height="104.6"/>
        <line class="cls-12" x1="1676.6" y1="2042.7" x2="1496.9" y2="2147.3"/>
        <line class="cls-12" x1="1496.9" y1="2042.7" x2="1676.6" y2="2147.3"/>
      </g>
      <g>
        <rect class="cls-13" x="1291.8" y="1681.9" width="94.7" height="89.5"/>
        <line class="cls-13" x1="1386.5" y1="1681.9" x2="1291.8" y2="1771.5"/>
        <line class="cls-13" x1="1291.8" y1="1681.9" x2="1386.5" y2="1771.5"/>
      </g>
      <g>
        <rect class="cls-13" x="1390.1" y="1681.9" width="94.7" height="89.5"/>
        <line class="cls-13" x1="1484.8" y1="1681.9" x2="1390.1" y2="1771.5"/>
        <line class="cls-13" x1="1390.1" y1="1681.9" x2="1484.8" y2="1771.5"/>
      </g>
      <g>
        <rect class="cls-13" x="1488.4" y="1681.9" width="94.7" height="89.5"/>
        <line class="cls-13" x1="1583.1" y1="1681.9" x2="1488.4" y2="1771.5"/>
        <line class="cls-13" x1="1488.4" y1="1681.9" x2="1583.1" y2="1771.5"/>
      </g>
      <g>
        <rect class="cls-13" x="1586.7" y="1681.9" width="94.7" height="89.5"/>
        <line class="cls-13" x1="1681.4" y1="1681.9" x2="1586.7" y2="1771.5"/>
        <line class="cls-13" x1="1586.7" y1="1681.9" x2="1681.4" y2="1771.5"/>
      </g>
      <g>
        <rect class="cls-13" x="1291.8" y="2641.6" width="94.7" height="89.5"/>
        <line class="cls-13" x1="1386.5" y1="2641.6" x2="1291.8" y2="2731.1"/>
        <line class="cls-13" x1="1291.8" y1="2641.6" x2="1386.5" y2="2731.1"/>
      </g>
      <g>
        <rect class="cls-13" x="1390.1" y="2641.6" width="94.7" height="89.5"/>
        <line class="cls-13" x1="1484.8" y1="2641.6" x2="1390.1" y2="2731.1"/>
        <line class="cls-13" x1="1390.1" y1="2641.6" x2="1484.8" y2="2731.1"/>
      </g>
      <g>
        <rect class="cls-13" x="1488.4" y="2641.6" width="94.7" height="89.5"/>
        <line class="cls-13" x1="1583.1" y1="2641.6" x2="1488.4" y2="2731.1"/>
        <line class="cls-13" x1="1488.4" y1="2641.6" x2="1583.1" y2="2731.1"/>
      </g>
      <g>
        <rect class="cls-13" x="1586.7" y="2641.6" width="94.7" height="89.5"/>
        <line class="cls-13" x1="1681.4" y1="2641.6" x2="1586.7" y2="2731.1"/>
        <line class="cls-13" x1="1586.7" y1="2641.6" x2="1681.4" y2="2731.1"/>
      </g>
      <g>
        <rect class="cls-16" x="1494.6" y="1032.6" width="178.5" height="80.9"/>
        <line class="cls-16" x1="1673.1" y1="1032.6" x2="1494.6" y2="1113.5"/>
        <line class="cls-16" x1="1494.6" y1="1032.6" x2="1673.1" y2="1113.5"/>
      </g>
      <g>
        <rect class="cls-14" x="1494.6" y="647.8" width="178.5" height="157.4"/>
        <line class="cls-14" x1="1673.1" y1="647.8" x2="1494.6" y2="805.2"/>
        <line class="cls-14" x1="1494.6" y1="647.8" x2="1673.1" y2="805.2"/>
      </g>
      <g>
        <line class="cls-20" x1="1710.1" y1="329" x2="1715" y2="329"/>
        <line class="cls-19" x1="1725.2" y1="329" x2="1922.7" y2="329"/>
        <line class="cls-20" x1="1927.8" y1="329" x2="1932.7" y2="329"/>
      </g>
      <line class="cls-18" x1="1629.3" y1="189.5" x2="1929.4" y2="189.5"/>
      <text class="cls-5" transform="translate(1942.7 620.6)"><tspan x="0" y="0">Sub título</tspan></text>
      <line class="cls-18" x1="1629.3" y1="613.6" x2="1929.4" y2="613.6"/>
      <rect class="cls-34" x="1359.1" y="182.5" width="256.1" height="14.1"/>
      <rect class="cls-34" x="1359.1" y="605" width="256.1" height="14.1"/>
      <rect class="cls-34" x="1359.1" y="1426.3" width="256.1" height="14.1"/>
      <rect class="cls-34" x="1359.1" y="2339.9" width="256.1" height="14.1"/>
      <rect class="cls-34" x="1285.7" y="2764.3" width="256.1" height="14.1"/>
      <rect class="cls-34" x="1285.7" y="3350.1" width="256.1" height="14.1"/>
      <rect class="cls-34" x="1297.5" y="1153.9" width="256.1" height="14.1"/>
      <g>
        <line class="cls-24" x1="1297.5" y1="466.8" x2="1476.2" y2="466.8"/>
        <line class="cls-24" x1="1297.5" y1="481.3" x2="1476.2" y2="481.3"/>
        <line class="cls-24" x1="1297.5" y1="495.7" x2="1476.2" y2="495.7"/>
        <line class="cls-24" x1="1297.5" y1="510.2" x2="1476.2" y2="510.2"/>
        <line class="cls-24" x1="1297.5" y1="524.6" x2="1476.2" y2="524.6"/>
        <line class="cls-24" x1="1297.5" y1="539.1" x2="1476.2" y2="539.1"/>
      </g>
      <g>
        <line class="cls-29" x1="1297.5" y1="1179.3" x2="1670.1" y2="1179.3"/>
        <line class="cls-29" x1="1297.5" y1="1193.7" x2="1670.1" y2="1193.7"/>
        <line class="cls-29" x1="1297.5" y1="1208.2" x2="1670.1" y2="1208.2"/>
      </g>
      <g>
        <line class="cls-24" x1="1491.3" y1="945.3" x2="1670.1" y2="945.3"/>
        <line class="cls-24" x1="1491.3" y1="959.7" x2="1670.1" y2="959.7"/>
        <line class="cls-24" x1="1491.3" y1="974.2" x2="1670.1" y2="974.2"/>
        <line class="cls-24" x1="1491.3" y1="988.6" x2="1670.1" y2="988.6"/>
        <line class="cls-24" x1="1491.3" y1="1003.1" x2="1670.1" y2="1003.1"/>
        <line class="cls-24" x1="1491.3" y1="1017.5" x2="1670.1" y2="1017.5"/>
      </g>
      <g>
        <line class="cls-24" x1="1498.7" y1="1492.9" x2="1677.4" y2="1492.9"/>
        <line class="cls-24" x1="1498.7" y1="1507.4" x2="1677.4" y2="1507.4"/>
        <line class="cls-24" x1="1498.7" y1="1521.8" x2="1677.4" y2="1521.8"/>
        <line class="cls-24" x1="1498.7" y1="1536.3" x2="1677.4" y2="1536.3"/>
        <line class="cls-24" x1="1498.7" y1="1550.7" x2="1677.4" y2="1550.7"/>
        <line class="cls-24" x1="1498.7" y1="1565.2" x2="1677.4" y2="1565.2"/>
      </g>
      <g>
        <line class="cls-24" x1="1300.7" y1="2061.5" x2="1479.5" y2="2061.5"/>
        <line class="cls-24" x1="1300.7" y1="2075.9" x2="1479.5" y2="2075.9"/>
        <line class="cls-24" x1="1300.7" y1="2090.4" x2="1479.5" y2="2090.4"/>
        <line class="cls-24" x1="1300.7" y1="2104.8" x2="1479.5" y2="2104.8"/>
        <line class="cls-24" x1="1300.7" y1="2119.3" x2="1479.5" y2="2119.3"/>
        <line class="cls-24" x1="1300.7" y1="2133.7" x2="1479.5" y2="2133.7"/>
      </g>
      <g>
        <line class="cls-24" x1="1288.5" y1="3047.5" x2="1467.2" y2="3047.5"/>
        <line class="cls-24" x1="1288.5" y1="3061.9" x2="1467.2" y2="3061.9"/>
        <line class="cls-24" x1="1288.5" y1="3076.4" x2="1467.2" y2="3076.4"/>
        <line class="cls-24" x1="1288.5" y1="3090.8" x2="1467.2" y2="3090.8"/>
        <line class="cls-24" x1="1288.5" y1="3105.3" x2="1467.2" y2="3105.3"/>
        <line class="cls-24" x1="1288.5" y1="3119.7" x2="1467.2" y2="3119.7"/>
      </g>
      <g>
        <line class="cls-24" x1="1288.5" y1="3624.6" x2="1467.2" y2="3624.6"/>
        <line class="cls-24" x1="1288.5" y1="3639.1" x2="1467.2" y2="3639.1"/>
        <line class="cls-24" x1="1288.5" y1="3653.5" x2="1467.2" y2="3653.5"/>
        <line class="cls-24" x1="1288.5" y1="3668" x2="1467.2" y2="3668"/>
        <line class="cls-24" x1="1288.5" y1="3682.4" x2="1467.2" y2="3682.4"/>
        <line class="cls-24" x1="1288.5" y1="3696.9" x2="1467.2" y2="3696.9"/>
      </g>
      <g>
        <line class="cls-24" x1="1482.2" y1="3818.4" x2="1660.9" y2="3818.4"/>
        <line class="cls-24" x1="1482.2" y1="3832.8" x2="1660.9" y2="3832.8"/>
        <line class="cls-24" x1="1482.2" y1="3847.3" x2="1660.9" y2="3847.3"/>
        <line class="cls-24" x1="1482.2" y1="3861.7" x2="1660.9" y2="3861.7"/>
        <line class="cls-24" x1="1482.2" y1="3876.2" x2="1660.9" y2="3876.2"/>
        <line class="cls-24" x1="1482.2" y1="3890.6" x2="1660.9" y2="3890.6"/>
      </g>
      <g>
        <line class="cls-24" x1="1482.2" y1="3430.9" x2="1660.9" y2="3430.9"/>
        <line class="cls-24" x1="1482.2" y1="3445.3" x2="1660.9" y2="3445.3"/>
        <line class="cls-24" x1="1482.2" y1="3459.8" x2="1660.9" y2="3459.8"/>
        <line class="cls-24" x1="1482.2" y1="3474.2" x2="1660.9" y2="3474.2"/>
        <line class="cls-24" x1="1482.2" y1="3488.7" x2="1660.9" y2="3488.7"/>
        <line class="cls-24" x1="1482.2" y1="3503.1" x2="1660.9" y2="3503.1"/>
      </g>
      <g>
        <rect class="cls-11" x="1505.4" y="2890" width="162.7" height="137.9"/>
        <line class="cls-11" x1="1668.1" y1="2890" x2="1505.4" y2="3027.9"/>
        <line class="cls-11" x1="1505.4" y1="2890" x2="1668.1" y2="3027.9"/>
      </g>
      <g>
        <rect class="cls-11" x="1505.4" y="3584.6" width="162.7" height="137.9"/>
        <line class="cls-11" x1="1668.1" y1="3584.6" x2="1505.4" y2="3722.5"/>
        <line class="cls-11" x1="1505.4" y1="3584.6" x2="1668.1" y2="3722.5"/>
      </g>
      <g>
        <rect class="cls-9" x="1286.9" y="3993.1" width="403.1" height="157.7"/>
        <line class="cls-9" x1="1690" y1="3993.1" x2="1286.9" y2="4150.8"/>
        <line class="cls-9" x1="1286.9" y1="3993.1" x2="1690" y2="4150.8"/>
      </g>
      <g>
        <line class="cls-24" x1="1497.4" y1="3047.5" x2="1676.1" y2="3047.5"/>
        <line class="cls-24" x1="1497.4" y1="3061.9" x2="1676.1" y2="3061.9"/>
        <line class="cls-24" x1="1497.4" y1="3076.4" x2="1676.1" y2="3076.4"/>
        <line class="cls-24" x1="1497.4" y1="3090.8" x2="1676.1" y2="3090.8"/>
        <line class="cls-24" x1="1497.4" y1="3105.3" x2="1676.1" y2="3105.3"/>
        <line class="cls-24" x1="1497.4" y1="3119.7" x2="1676.1" y2="3119.7"/>
      </g>
      <g>
        <line class="cls-24" x1="1497.4" y1="3198.8" x2="1676.1" y2="3198.8"/>
        <line class="cls-24" x1="1497.4" y1="3213.3" x2="1676.1" y2="3213.3"/>
        <line class="cls-24" x1="1497.4" y1="3227.7" x2="1676.1" y2="3227.7"/>
        <line class="cls-24" x1="1497.4" y1="3242.1" x2="1676.1" y2="3242.1"/>
        <line class="cls-24" x1="1497.4" y1="3256.6" x2="1676.1" y2="3256.6"/>
        <line class="cls-24" x1="1497.4" y1="3271" x2="1676.1" y2="3271"/>
      </g>
      <g>
        <line class="cls-26" x1="1287.8" y1="2563.2" x2="1676.6" y2="2563.2"/>
        <line class="cls-26" x1="1287.8" y1="2574.7" x2="1676.6" y2="2574.7"/>
        <line class="cls-26" x1="1287.8" y1="2586.3" x2="1676.6" y2="2586.3"/>
        <line class="cls-26" x1="1287.8" y1="2597.8" x2="1676.6" y2="2597.8"/>
        <line class="cls-26" x1="1287.8" y1="2609.4" x2="1676.6" y2="2609.4"/>
        <line class="cls-26" x1="1287.8" y1="2621" x2="1676.6" y2="2621"/>
      </g>
      <g>
        <line class="cls-26" x1="1287.8" y1="2798.1" x2="1676.6" y2="2798.1"/>
        <line class="cls-26" x1="1287.8" y1="2809.7" x2="1676.6" y2="2809.7"/>
        <line class="cls-26" x1="1287.8" y1="2821.2" x2="1676.6" y2="2821.2"/>
        <line class="cls-26" x1="1287.8" y1="2832.8" x2="1676.6" y2="2832.8"/>
        <line class="cls-26" x1="1287.8" y1="2844.3" x2="1676.6" y2="2844.3"/>
        <line class="cls-26" x1="1287.8" y1="2855.9" x2="1676.6" y2="2855.9"/>
      </g>
      <g>
        <line class="cls-24" x1="1498.7" y1="1581.4" x2="1677.4" y2="1581.4"/>
        <line class="cls-24" x1="1498.7" y1="1595.8" x2="1677.4" y2="1595.8"/>
        <line class="cls-24" x1="1498.7" y1="1610.3" x2="1677.4" y2="1610.3"/>
        <line class="cls-24" x1="1498.7" y1="1624.7" x2="1677.4" y2="1624.7"/>
        <line class="cls-24" x1="1498.7" y1="1639.2" x2="1677.4" y2="1639.2"/>
        <line class="cls-24" x1="1498.7" y1="1653.6" x2="1677.4" y2="1653.6"/>
      </g>
      <g>
        <line class="cls-30" x1="1297.5" y1="823.3" x2="1673.1" y2="823.3"/>
        <line class="cls-30" x1="1297.5" y1="837.7" x2="1673.1" y2="837.7"/>
        <line class="cls-30" x1="1297.5" y1="852.2" x2="1673.1" y2="852.2"/>
        <line class="cls-30" x1="1297.5" y1="866.6" x2="1673.1" y2="866.6"/>
        <line class="cls-30" x1="1297.5" y1="881.1" x2="1673.1" y2="881.1"/>
        <line class="cls-30" x1="1297.5" y1="895.5" x2="1673.1" y2="895.5"/>
      </g>
      <g>
        <line class="cls-21" x1="1688.8" y1="503.2" x2="1692.5" y2="503.2"/>
        <line class="cls-22" x1="1699.6" y1="503.2" x2="1925.5" y2="503.2"/>
        <line class="cls-21" x1="1929.1" y1="503.2" x2="1932.7" y2="503.2"/>
      </g>
      <text class="cls-5" transform="translate(1946.7 745.6)"><tspan x="0" y="0">Imágenes antes del</tspan><tspan x="0" y="30">Palacio</tspan></text>
      <text class="cls-5" transform="translate(1946.7 873.6)"><tspan x="0" y="0">Contexto Histórico</tspan></text>
      <g>
        <line class="cls-21" x1="1688.8" y1="740.6" x2="1692.5" y2="740.6"/>
        <line class="cls-22" x1="1699.6" y1="740.6" x2="1925.5" y2="740.6"/>
        <line class="cls-21" x1="1929.1" y1="740.6" x2="1932.7" y2="740.6"/>
      </g>
      <g>
        <line class="cls-21" x1="1688.8" y1="866.6" x2="1692.5" y2="866.6"/>
        <line class="cls-22" x1="1699.6" y1="866.6" x2="1925.5" y2="866.6"/>
        <line class="cls-21" x1="1929.1" y1="866.6" x2="1932.7" y2="866.6"/>
      </g>
      <text class="cls-5" transform="translate(1946.7 992.1)"><tspan x="0" y="0">Quien es Luis Pereira</tspan></text>
      <text class="cls-1" transform="translate(1788.9 1184.7)"><tspan x="0" y="0">Clímax</tspan></text>
      <g>
        <line class="cls-21" x1="1688.8" y1="985.1" x2="1692.5" y2="985.1"/>
        <line class="cls-22" x1="1699.6" y1="985.1" x2="1925.5" y2="985.1"/>
        <line class="cls-21" x1="1929.1" y1="985.1" x2="1932.7" y2="985.1"/>
      </g>
      <g>
        <line class="cls-21" x1="1688.8" y1="1073.1" x2="1692.5" y2="1073.1"/>
        <line class="cls-22" x1="1699.6" y1="1073.1" x2="1925.5" y2="1073.1"/>
        <line class="cls-21" x1="1929.1" y1="1073.1" x2="1932.7" y2="1073.1"/>
      </g>
      <text class="cls-5" transform="translate(1946.7 1293.9)"><tspan x="0" y="0">Linea del tiempo</tspan></text>
      <g>
        <line class="cls-21" x1="1688.8" y1="1292.9" x2="1692.5" y2="1292.9"/>
        <line class="cls-22" x1="1699.6" y1="1292.9" x2="1925.5" y2="1292.9"/>
        <line class="cls-21" x1="1929.1" y1="1292.9" x2="1932.7" y2="1292.9"/>
      </g>
      <text class="cls-5" transform="translate(1946.7 1561.3)"><tspan x="0" y="0">Arquitecto</tspan></text>
      <g>
        <line class="cls-21" x1="1688.8" y1="1560.3" x2="1692.5" y2="1560.3"/>
        <line class="cls-22" x1="1699.6" y1="1560.3" x2="1925.5" y2="1560.3"/>
        <line class="cls-21" x1="1929.1" y1="1560.3" x2="1932.7" y2="1560.3"/>
      </g>
      <text class="cls-5" transform="translate(1946.7 1730.4)"><tspan x="0" y="0">Imágenes de otros</tspan><tspan x="0" y="30">edificios del arquitecto</tspan></text>
      <g>
        <line class="cls-21" x1="1688.8" y1="1735.5" x2="1692.5" y2="1735.5"/>
        <line class="cls-22" x1="1699.6" y1="1735.5" x2="1925.5" y2="1735.5"/>
        <line class="cls-21" x1="1929.1" y1="1735.5" x2="1932.7" y2="1735.5"/>
      </g>
      <text class="cls-5" transform="translate(1949.7 1916.6)"><tspan x="0" y="0">Ilustración edificio</tspan><tspan x="0" y="30">y sus partes</tspan></text>
      <g>
        <line class="cls-21" x1="1688.8" y1="1915.6" x2="1692.5" y2="1915.6"/>
        <line class="cls-22" x1="1699.6" y1="1915.6" x2="1925.5" y2="1915.6"/>
        <line class="cls-21" x1="1929.1" y1="1915.6" x2="1932.7" y2="1915.6"/>
      </g>
      <text class="cls-5" transform="translate(1949.7 2095.5)"><tspan x="0" y="0">Edificios Neoclasicos</tspan></text>
      <g>
        <line class="cls-21" x1="1688.8" y1="2094.5" x2="1692.5" y2="2094.5"/>
        <line class="cls-22" x1="1699.6" y1="2094.5" x2="1925.5" y2="2094.5"/>
        <line class="cls-21" x1="1929.1" y1="2094.5" x2="1932.7" y2="2094.5"/>
      </g>
      <text class="cls-5" transform="translate(1949.7 2467.1)"><tspan x="0" y="0">Imagen Plano ganador</tspan></text>
      <g>
        <line class="cls-21" x1="1688.8" y1="2466.1" x2="1692.5" y2="2466.1"/>
        <line class="cls-22" x1="1699.6" y1="2466.1" x2="1925.5" y2="2466.1"/>
        <line class="cls-21" x1="1929.1" y1="2466.1" x2="1932.7" y2="2466.1"/>
      </g>
      <text class="cls-5" transform="translate(1949.7 2706.4)"><tspan x="0" y="0">Ganadores</tspan></text>
      <g>
        <line class="cls-21" x1="1688.8" y1="2698.4" x2="1692.5" y2="2698.4"/>
        <line class="cls-22" x1="1699.6" y1="2698.4" x2="1925.5" y2="2698.4"/>
        <line class="cls-21" x1="1929.1" y1="2698.4" x2="1932.7" y2="2698.4"/>
      </g>
      <text class="cls-5" transform="translate(1949.7 2973.6)"><tspan x="0" y="0">Imágenes criterio de</tspan><tspan x="0" y="30">restauración de pieza</tspan></text>
      <g>
        <line class="cls-21" x1="1688.8" y1="2965.6" x2="1692.5" y2="2965.6"/>
        <line class="cls-22" x1="1699.6" y1="2965.6" x2="1925.5" y2="2965.6"/>
        <line class="cls-21" x1="1929.1" y1="2965.6" x2="1932.7" y2="2965.6"/>
      </g>
      <text class="cls-5" transform="translate(1949.7 3234.9)"><tspan x="0" y="0">Imagen colores</tspan><tspan x="0" y="30">distintos</tspan></text>
      <g>
        <line class="cls-21" x1="1688.8" y1="3238.1" x2="1692.5" y2="3238.1"/>
        <line class="cls-22" x1="1699.6" y1="3238.1" x2="1925.5" y2="3238.1"/>
        <line class="cls-21" x1="1929.1" y1="3238.1" x2="1932.7" y2="3238.1"/>
      </g>
      <text class="cls-5" transform="translate(1949.7 3463.2)"><tspan x="0" y="0">Imágenes gif</tspan></text>
      <g>
        <line class="cls-21" x1="1688.8" y1="3461.4" x2="1692.5" y2="3461.4"/>
        <line class="cls-22" x1="1699.6" y1="3461.4" x2="1925.5" y2="3461.4"/>
        <line class="cls-21" x1="1929.1" y1="3461.4" x2="1932.7" y2="3461.4"/>
      </g>
      <text class="cls-5" transform="translate(1949.7 4072.9)"><tspan x="0" y="0">Imagen final</tspan></text>
      <g>
        <line class="cls-21" x1="1688.8" y1="4071.1" x2="1692.5" y2="4071.1"/>
        <line class="cls-22" x1="1699.6" y1="4071.1" x2="1925.5" y2="4071.1"/>
        <line class="cls-21" x1="1929.1" y1="4071.1" x2="1932.7" y2="4071.1"/>
      </g>
      <polyline class="cls-33" points="1255.7 120.4 1156.1 120.4 1156.1 564.8 1255.7 564.8"/>
      <polyline class="cls-33" points="1255.7 582.8 1156.1 582.8 1156.1 1392.1 1255.7 1392.1"/>
      <polyline class="cls-32" points="1255.7 1412.6 1156.1 1412.6 1156.1 2312 1255.7 2312"/>
      <line class="cls-33" x1="1156.1" y1="287.6" x2="1090.6" y2="287.6"/>
      <line class="cls-33" x1="1156.1" y1="937.5" x2="1090.6" y2="937.5"/>
      <line class="cls-33" x1="1156.1" y1="1667.1" x2="1090.6" y2="1667.1"/>
      <polygon class="cls-31" points="1692.3 1388.1 1284.8 1388.1 1284.8 1141.6 1692.3 1141.6 1692.3 1179.3 1692.3 1388.1"/>
      <line class="cls-31" x1="1772.7" y1="1179.3" x2="1692.3" y2="1179.3"/>
      <text class="cls-1" transform="translate(1785.9 1828.6)"><tspan x="0" y="0">Clímax</tspan></text>
      <polygon class="cls-31" points="1689.3 2032.1 1281.8 2032.1 1281.8 1785.5 1689.3 1785.5 1689.3 1823.2 1689.3 2032.1"/>
      <line class="cls-31" x1="1769.7" y1="1823.2" x2="1689.3" y2="1823.2"/>
      <text class="cls-1" transform="translate(1785.9 3370.3)"><tspan x="0" y="0">Clímax</tspan></text>
      <polygon class="cls-31" points="1689.3 3970.8 1281.8 3970.8 1281.8 3327.2 1689.3 3327.2 1689.3 3425.5 1689.3 3970.8"/>
      <line class="cls-31" x1="1769.7" y1="3364.9" x2="1689.3" y2="3364.9"/>
    </g>
  </g>
</svg>